<mxfile host="app.diagrams.net" modified="2024-06-23T08:32:29.237Z" agent="Mozilla/5.0 (Windows NT 10.0; Win64; x64) AppleWebKit/537.36 (KHTML, like Gecko) Chrome/99.0.4844.84 Safari/537.36 HBPC/12.1.3.303" version="24.6.2" etag="jFRNRrbcmVXg5PFHBcJX" type="device">
  <diagram id="C5RBs43oDa-KdzZeNtuy" name="Page-1">
    <mxGraphModel dx="3103" dy="2085" grid="1" gridSize="10" guides="1" tooltips="1" connect="1" arrows="1" fold="1" page="1" pageScale="1" pageWidth="827" pageHeight="1169" math="0" shadow="0">
      <root>
        <mxCell id="WIyWlLk6GJQsqaUBKTNV-0" />
        <mxCell id="WIyWlLk6GJQsqaUBKTNV-1" parent="WIyWlLk6GJQsqaUBKTNV-0" />
        <mxCell id="zkfFHV4jXpPFQw0GAbJ--0" value="User" style="swimlane;fontStyle=2;align=center;verticalAlign=top;childLayout=stackLayout;horizontal=1;startSize=26;horizontalStack=0;resizeParent=1;resizeLast=0;collapsible=1;marginBottom=0;rounded=0;shadow=0;strokeWidth=1;" parent="WIyWlLk6GJQsqaUBKTNV-1" vertex="1">
          <mxGeometry x="-600" y="50" width="160" height="200" as="geometry">
            <mxRectangle x="230" y="140" width="160" height="26" as="alternateBounds" />
          </mxGeometry>
        </mxCell>
        <mxCell id="zkfFHV4jXpPFQw0GAbJ--1" value="+Id String" style="text;align=left;verticalAlign=top;spacingLeft=4;spacingRight=4;overflow=hidden;rotatable=0;points=[[0,0.5],[1,0.5]];portConstraint=eastwest;" parent="zkfFHV4jXpPFQw0GAbJ--0" vertex="1">
          <mxGeometry y="26" width="160" height="26" as="geometry" />
        </mxCell>
        <mxCell id="zkfFHV4jXpPFQw0GAbJ--2" value="+fakename String" style="text;align=left;verticalAlign=top;spacingLeft=4;spacingRight=4;overflow=hidden;rotatable=0;points=[[0,0.5],[1,0.5]];portConstraint=eastwest;rounded=0;shadow=0;html=0;" parent="zkfFHV4jXpPFQw0GAbJ--0" vertex="1">
          <mxGeometry y="52" width="160" height="26" as="geometry" />
        </mxCell>
        <mxCell id="zkfFHV4jXpPFQw0GAbJ--3" value="+userpic String" style="text;align=left;verticalAlign=top;spacingLeft=4;spacingRight=4;overflow=hidden;rotatable=0;points=[[0,0.5],[1,0.5]];portConstraint=eastwest;rounded=0;shadow=0;html=0;" parent="zkfFHV4jXpPFQw0GAbJ--0" vertex="1">
          <mxGeometry y="78" width="160" height="26" as="geometry" />
        </mxCell>
        <mxCell id="zkfFHV4jXpPFQw0GAbJ--4" value="" style="line;html=1;strokeWidth=1;align=left;verticalAlign=middle;spacingTop=-1;spacingLeft=3;spacingRight=3;rotatable=0;labelPosition=right;points=[];portConstraint=eastwest;" parent="zkfFHV4jXpPFQw0GAbJ--0" vertex="1">
          <mxGeometry y="104" width="160" height="8" as="geometry" />
        </mxCell>
        <mxCell id="zkfFHV4jXpPFQw0GAbJ--5" value="+setid()" style="text;align=left;verticalAlign=top;spacingLeft=4;spacingRight=4;overflow=hidden;rotatable=0;points=[[0,0.5],[1,0.5]];portConstraint=eastwest;" parent="zkfFHV4jXpPFQw0GAbJ--0" vertex="1">
          <mxGeometry y="112" width="160" height="26" as="geometry" />
        </mxCell>
        <mxCell id="63ENl7EBPZfW6CbWKA2c-0" value="+getid()" style="text;align=left;verticalAlign=top;spacingLeft=4;spacingRight=4;overflow=hidden;rotatable=0;points=[[0,0.5],[1,0.5]];portConstraint=eastwest;" vertex="1" parent="zkfFHV4jXpPFQw0GAbJ--0">
          <mxGeometry y="138" width="160" height="26" as="geometry" />
        </mxCell>
        <mxCell id="63ENl7EBPZfW6CbWKA2c-1" value="……" style="text;align=left;verticalAlign=top;spacingLeft=4;spacingRight=4;overflow=hidden;rotatable=0;points=[[0,0.5],[1,0.5]];portConstraint=eastwest;" vertex="1" parent="zkfFHV4jXpPFQw0GAbJ--0">
          <mxGeometry y="164" width="160" height="26" as="geometry" />
        </mxCell>
        <mxCell id="zkfFHV4jXpPFQw0GAbJ--17" value="Talk" style="swimlane;fontStyle=0;align=center;verticalAlign=top;childLayout=stackLayout;horizontal=1;startSize=26;horizontalStack=0;resizeParent=1;resizeLast=0;collapsible=1;marginBottom=0;rounded=0;shadow=0;strokeWidth=1;" parent="WIyWlLk6GJQsqaUBKTNV-1" vertex="1">
          <mxGeometry x="-384" y="190" width="160" height="190" as="geometry">
            <mxRectangle x="550" y="140" width="160" height="26" as="alternateBounds" />
          </mxGeometry>
        </mxCell>
        <mxCell id="zkfFHV4jXpPFQw0GAbJ--18" value="time String" style="text;align=left;verticalAlign=top;spacingLeft=4;spacingRight=4;overflow=hidden;rotatable=0;points=[[0,0.5],[1,0.5]];portConstraint=eastwest;" parent="zkfFHV4jXpPFQw0GAbJ--17" vertex="1">
          <mxGeometry y="26" width="160" height="26" as="geometry" />
        </mxCell>
        <mxCell id="zkfFHV4jXpPFQw0GAbJ--19" value="chatroomname String" style="text;align=left;verticalAlign=top;spacingLeft=4;spacingRight=4;overflow=hidden;rotatable=0;points=[[0,0.5],[1,0.5]];portConstraint=eastwest;rounded=0;shadow=0;html=0;" parent="zkfFHV4jXpPFQw0GAbJ--17" vertex="1">
          <mxGeometry y="52" width="160" height="26" as="geometry" />
        </mxCell>
        <mxCell id="zkfFHV4jXpPFQw0GAbJ--20" value="context String" style="text;align=left;verticalAlign=top;spacingLeft=4;spacingRight=4;overflow=hidden;rotatable=0;points=[[0,0.5],[1,0.5]];portConstraint=eastwest;rounded=0;shadow=0;html=0;" parent="zkfFHV4jXpPFQw0GAbJ--17" vertex="1">
          <mxGeometry y="78" width="160" height="26" as="geometry" />
        </mxCell>
        <mxCell id="zkfFHV4jXpPFQw0GAbJ--23" value="" style="line;html=1;strokeWidth=1;align=left;verticalAlign=middle;spacingTop=-1;spacingLeft=3;spacingRight=3;rotatable=0;labelPosition=right;points=[];portConstraint=eastwest;" parent="zkfFHV4jXpPFQw0GAbJ--17" vertex="1">
          <mxGeometry y="104" width="160" height="8" as="geometry" />
        </mxCell>
        <mxCell id="zkfFHV4jXpPFQw0GAbJ--24" value="+settime()" style="text;align=left;verticalAlign=top;spacingLeft=4;spacingRight=4;overflow=hidden;rotatable=0;points=[[0,0.5],[1,0.5]];portConstraint=eastwest;" parent="zkfFHV4jXpPFQw0GAbJ--17" vertex="1">
          <mxGeometry y="112" width="160" height="26" as="geometry" />
        </mxCell>
        <mxCell id="zkfFHV4jXpPFQw0GAbJ--25" value="+gettime()" style="text;align=left;verticalAlign=top;spacingLeft=4;spacingRight=4;overflow=hidden;rotatable=0;points=[[0,0.5],[1,0.5]];portConstraint=eastwest;" parent="zkfFHV4jXpPFQw0GAbJ--17" vertex="1">
          <mxGeometry y="138" width="160" height="26" as="geometry" />
        </mxCell>
        <mxCell id="63ENl7EBPZfW6CbWKA2c-2" value="……" style="text;align=left;verticalAlign=top;spacingLeft=4;spacingRight=4;overflow=hidden;rotatable=0;points=[[0,0.5],[1,0.5]];portConstraint=eastwest;" vertex="1" parent="zkfFHV4jXpPFQw0GAbJ--17">
          <mxGeometry y="164" width="160" height="26" as="geometry" />
        </mxCell>
        <mxCell id="63ENl7EBPZfW6CbWKA2c-3" value="Room" style="swimlane;fontStyle=0;align=center;verticalAlign=top;childLayout=stackLayout;horizontal=1;startSize=26;horizontalStack=0;resizeParent=1;resizeLast=0;collapsible=1;marginBottom=0;rounded=0;shadow=0;strokeWidth=1;" vertex="1" parent="WIyWlLk6GJQsqaUBKTNV-1">
          <mxGeometry x="-600" y="370" width="160" height="190" as="geometry">
            <mxRectangle x="550" y="140" width="160" height="26" as="alternateBounds" />
          </mxGeometry>
        </mxCell>
        <mxCell id="63ENl7EBPZfW6CbWKA2c-4" value="roomName String" style="text;align=left;verticalAlign=top;spacingLeft=4;spacingRight=4;overflow=hidden;rotatable=0;points=[[0,0.5],[1,0.5]];portConstraint=eastwest;" vertex="1" parent="63ENl7EBPZfW6CbWKA2c-3">
          <mxGeometry y="26" width="160" height="26" as="geometry" />
        </mxCell>
        <mxCell id="63ENl7EBPZfW6CbWKA2c-5" value="chatroomname String" style="text;align=left;verticalAlign=top;spacingLeft=4;spacingRight=4;overflow=hidden;rotatable=0;points=[[0,0.5],[1,0.5]];portConstraint=eastwest;rounded=0;shadow=0;html=0;" vertex="1" parent="63ENl7EBPZfW6CbWKA2c-3">
          <mxGeometry y="52" width="160" height="26" as="geometry" />
        </mxCell>
        <mxCell id="63ENl7EBPZfW6CbWKA2c-6" value="context String" style="text;align=left;verticalAlign=top;spacingLeft=4;spacingRight=4;overflow=hidden;rotatable=0;points=[[0,0.5],[1,0.5]];portConstraint=eastwest;rounded=0;shadow=0;html=0;" vertex="1" parent="63ENl7EBPZfW6CbWKA2c-3">
          <mxGeometry y="78" width="160" height="26" as="geometry" />
        </mxCell>
        <mxCell id="63ENl7EBPZfW6CbWKA2c-7" value="" style="line;html=1;strokeWidth=1;align=left;verticalAlign=middle;spacingTop=-1;spacingLeft=3;spacingRight=3;rotatable=0;labelPosition=right;points=[];portConstraint=eastwest;" vertex="1" parent="63ENl7EBPZfW6CbWKA2c-3">
          <mxGeometry y="104" width="160" height="8" as="geometry" />
        </mxCell>
        <mxCell id="63ENl7EBPZfW6CbWKA2c-8" value="+setroomname()" style="text;align=left;verticalAlign=top;spacingLeft=4;spacingRight=4;overflow=hidden;rotatable=0;points=[[0,0.5],[1,0.5]];portConstraint=eastwest;" vertex="1" parent="63ENl7EBPZfW6CbWKA2c-3">
          <mxGeometry y="112" width="160" height="26" as="geometry" />
        </mxCell>
        <mxCell id="63ENl7EBPZfW6CbWKA2c-9" value="+getroomname()" style="text;align=left;verticalAlign=top;spacingLeft=4;spacingRight=4;overflow=hidden;rotatable=0;points=[[0,0.5],[1,0.5]];portConstraint=eastwest;" vertex="1" parent="63ENl7EBPZfW6CbWKA2c-3">
          <mxGeometry y="138" width="160" height="26" as="geometry" />
        </mxCell>
        <mxCell id="63ENl7EBPZfW6CbWKA2c-10" value="……" style="text;align=left;verticalAlign=top;spacingLeft=4;spacingRight=4;overflow=hidden;rotatable=0;points=[[0,0.5],[1,0.5]];portConstraint=eastwest;" vertex="1" parent="63ENl7EBPZfW6CbWKA2c-3">
          <mxGeometry y="164" width="160" height="26" as="geometry" />
        </mxCell>
        <mxCell id="63ENl7EBPZfW6CbWKA2c-11" value="Result" style="swimlane;fontStyle=0;align=center;verticalAlign=top;childLayout=stackLayout;horizontal=1;startSize=26;horizontalStack=0;resizeParent=1;resizeLast=0;collapsible=1;marginBottom=0;rounded=0;shadow=0;strokeWidth=1;" vertex="1" parent="WIyWlLk6GJQsqaUBKTNV-1">
          <mxGeometry x="-374" y="-55" width="160" height="190" as="geometry">
            <mxRectangle x="550" y="140" width="160" height="26" as="alternateBounds" />
          </mxGeometry>
        </mxCell>
        <mxCell id="63ENl7EBPZfW6CbWKA2c-12" value="code int" style="text;align=left;verticalAlign=top;spacingLeft=4;spacingRight=4;overflow=hidden;rotatable=0;points=[[0,0.5],[1,0.5]];portConstraint=eastwest;" vertex="1" parent="63ENl7EBPZfW6CbWKA2c-11">
          <mxGeometry y="26" width="160" height="26" as="geometry" />
        </mxCell>
        <mxCell id="63ENl7EBPZfW6CbWKA2c-13" value="message String" style="text;align=left;verticalAlign=top;spacingLeft=4;spacingRight=4;overflow=hidden;rotatable=0;points=[[0,0.5],[1,0.5]];portConstraint=eastwest;rounded=0;shadow=0;html=0;" vertex="1" parent="63ENl7EBPZfW6CbWKA2c-11">
          <mxGeometry y="52" width="160" height="26" as="geometry" />
        </mxCell>
        <mxCell id="63ENl7EBPZfW6CbWKA2c-14" value="data T" style="text;align=left;verticalAlign=top;spacingLeft=4;spacingRight=4;overflow=hidden;rotatable=0;points=[[0,0.5],[1,0.5]];portConstraint=eastwest;rounded=0;shadow=0;html=0;" vertex="1" parent="63ENl7EBPZfW6CbWKA2c-11">
          <mxGeometry y="78" width="160" height="26" as="geometry" />
        </mxCell>
        <mxCell id="63ENl7EBPZfW6CbWKA2c-15" value="" style="line;html=1;strokeWidth=1;align=left;verticalAlign=middle;spacingTop=-1;spacingLeft=3;spacingRight=3;rotatable=0;labelPosition=right;points=[];portConstraint=eastwest;" vertex="1" parent="63ENl7EBPZfW6CbWKA2c-11">
          <mxGeometry y="104" width="160" height="8" as="geometry" />
        </mxCell>
        <mxCell id="63ENl7EBPZfW6CbWKA2c-16" value="+success()" style="text;align=left;verticalAlign=top;spacingLeft=4;spacingRight=4;overflow=hidden;rotatable=0;points=[[0,0.5],[1,0.5]];portConstraint=eastwest;" vertex="1" parent="63ENl7EBPZfW6CbWKA2c-11">
          <mxGeometry y="112" width="160" height="26" as="geometry" />
        </mxCell>
        <mxCell id="63ENl7EBPZfW6CbWKA2c-17" value="+error()" style="text;align=left;verticalAlign=top;spacingLeft=4;spacingRight=4;overflow=hidden;rotatable=0;points=[[0,0.5],[1,0.5]];portConstraint=eastwest;" vertex="1" parent="63ENl7EBPZfW6CbWKA2c-11">
          <mxGeometry y="138" width="160" height="26" as="geometry" />
        </mxCell>
        <mxCell id="63ENl7EBPZfW6CbWKA2c-18" value="……" style="text;align=left;verticalAlign=top;spacingLeft=4;spacingRight=4;overflow=hidden;rotatable=0;points=[[0,0.5],[1,0.5]];portConstraint=eastwest;" vertex="1" parent="63ENl7EBPZfW6CbWKA2c-11">
          <mxGeometry y="164" width="160" height="26" as="geometry" />
        </mxCell>
        <mxCell id="63ENl7EBPZfW6CbWKA2c-20" value="" style="endArrow=open;endFill=1;endSize=12;html=1;rounded=0;" edge="1" parent="WIyWlLk6GJQsqaUBKTNV-1" source="63ENl7EBPZfW6CbWKA2c-3" target="zkfFHV4jXpPFQw0GAbJ--0">
          <mxGeometry width="160" relative="1" as="geometry">
            <mxPoint x="-240" y="170" as="sourcePoint" />
            <mxPoint x="-80" y="170" as="targetPoint" />
          </mxGeometry>
        </mxCell>
        <mxCell id="63ENl7EBPZfW6CbWKA2c-24" value="UserService" style="swimlane;fontStyle=0;align=center;verticalAlign=top;childLayout=stackLayout;horizontal=1;startSize=26;horizontalStack=0;resizeParent=1;resizeLast=0;collapsible=1;marginBottom=0;rounded=0;shadow=0;strokeWidth=1;" vertex="1" parent="WIyWlLk6GJQsqaUBKTNV-1">
          <mxGeometry x="-615" y="-215" width="190" height="170" as="geometry">
            <mxRectangle x="550" y="140" width="160" height="26" as="alternateBounds" />
          </mxGeometry>
        </mxCell>
        <mxCell id="63ENl7EBPZfW6CbWKA2c-25" value="userRepository UserRepository " style="text;align=left;verticalAlign=top;spacingLeft=4;spacingRight=4;overflow=hidden;rotatable=0;points=[[0,0.5],[1,0.5]];portConstraint=eastwest;" vertex="1" parent="63ENl7EBPZfW6CbWKA2c-24">
          <mxGeometry y="26" width="190" height="26" as="geometry" />
        </mxCell>
        <mxCell id="63ENl7EBPZfW6CbWKA2c-28" value="" style="line;html=1;strokeWidth=1;align=left;verticalAlign=middle;spacingTop=-1;spacingLeft=3;spacingRight=3;rotatable=0;labelPosition=right;points=[];portConstraint=eastwest;" vertex="1" parent="63ENl7EBPZfW6CbWKA2c-24">
          <mxGeometry y="52" width="190" height="8" as="geometry" />
        </mxCell>
        <mxCell id="63ENl7EBPZfW6CbWKA2c-29" value="+saveUser()" style="text;align=left;verticalAlign=top;spacingLeft=4;spacingRight=4;overflow=hidden;rotatable=0;points=[[0,0.5],[1,0.5]];portConstraint=eastwest;" vertex="1" parent="63ENl7EBPZfW6CbWKA2c-24">
          <mxGeometry y="60" width="190" height="26" as="geometry" />
        </mxCell>
        <mxCell id="63ENl7EBPZfW6CbWKA2c-30" value="+updateUser()" style="text;align=left;verticalAlign=top;spacingLeft=4;spacingRight=4;overflow=hidden;rotatable=0;points=[[0,0.5],[1,0.5]];portConstraint=eastwest;" vertex="1" parent="63ENl7EBPZfW6CbWKA2c-24">
          <mxGeometry y="86" width="190" height="26" as="geometry" />
        </mxCell>
        <mxCell id="63ENl7EBPZfW6CbWKA2c-31" value="+checkid()" style="text;align=left;verticalAlign=top;spacingLeft=4;spacingRight=4;overflow=hidden;rotatable=0;points=[[0,0.5],[1,0.5]];portConstraint=eastwest;" vertex="1" parent="63ENl7EBPZfW6CbWKA2c-24">
          <mxGeometry y="112" width="190" height="26" as="geometry" />
        </mxCell>
        <mxCell id="63ENl7EBPZfW6CbWKA2c-32" value="+findAllUsers()" style="text;align=left;verticalAlign=top;spacingLeft=4;spacingRight=4;overflow=hidden;rotatable=0;points=[[0,0.5],[1,0.5]];portConstraint=eastwest;" vertex="1" parent="63ENl7EBPZfW6CbWKA2c-24">
          <mxGeometry y="138" width="190" height="26" as="geometry" />
        </mxCell>
        <mxCell id="63ENl7EBPZfW6CbWKA2c-33" value="RoomService" style="swimlane;fontStyle=0;align=center;verticalAlign=top;childLayout=stackLayout;horizontal=1;startSize=26;horizontalStack=0;resizeParent=1;resizeLast=0;collapsible=1;marginBottom=0;rounded=0;shadow=0;strokeWidth=1;" vertex="1" parent="WIyWlLk6GJQsqaUBKTNV-1">
          <mxGeometry x="-620" y="710" width="190" height="170" as="geometry">
            <mxRectangle x="550" y="140" width="160" height="26" as="alternateBounds" />
          </mxGeometry>
        </mxCell>
        <mxCell id="63ENl7EBPZfW6CbWKA2c-34" value="roomRepository RoomRepository " style="text;align=left;verticalAlign=top;spacingLeft=4;spacingRight=4;overflow=hidden;rotatable=0;points=[[0,0.5],[1,0.5]];portConstraint=eastwest;" vertex="1" parent="63ENl7EBPZfW6CbWKA2c-33">
          <mxGeometry y="26" width="190" height="26" as="geometry" />
        </mxCell>
        <mxCell id="63ENl7EBPZfW6CbWKA2c-35" value="" style="line;html=1;strokeWidth=1;align=left;verticalAlign=middle;spacingTop=-1;spacingLeft=3;spacingRight=3;rotatable=0;labelPosition=right;points=[];portConstraint=eastwest;" vertex="1" parent="63ENl7EBPZfW6CbWKA2c-33">
          <mxGeometry y="52" width="190" height="8" as="geometry" />
        </mxCell>
        <mxCell id="63ENl7EBPZfW6CbWKA2c-36" value="+saveRoom()" style="text;align=left;verticalAlign=top;spacingLeft=4;spacingRight=4;overflow=hidden;rotatable=0;points=[[0,0.5],[1,0.5]];portConstraint=eastwest;" vertex="1" parent="63ENl7EBPZfW6CbWKA2c-33">
          <mxGeometry y="60" width="190" height="26" as="geometry" />
        </mxCell>
        <mxCell id="63ENl7EBPZfW6CbWKA2c-37" value="+updateRoom()" style="text;align=left;verticalAlign=top;spacingLeft=4;spacingRight=4;overflow=hidden;rotatable=0;points=[[0,0.5],[1,0.5]];portConstraint=eastwest;" vertex="1" parent="63ENl7EBPZfW6CbWKA2c-33">
          <mxGeometry y="86" width="190" height="26" as="geometry" />
        </mxCell>
        <mxCell id="63ENl7EBPZfW6CbWKA2c-38" value="+checkroomname()" style="text;align=left;verticalAlign=top;spacingLeft=4;spacingRight=4;overflow=hidden;rotatable=0;points=[[0,0.5],[1,0.5]];portConstraint=eastwest;" vertex="1" parent="63ENl7EBPZfW6CbWKA2c-33">
          <mxGeometry y="112" width="190" height="26" as="geometry" />
        </mxCell>
        <mxCell id="63ENl7EBPZfW6CbWKA2c-39" value="+findAllRooms()" style="text;align=left;verticalAlign=top;spacingLeft=4;spacingRight=4;overflow=hidden;rotatable=0;points=[[0,0.5],[1,0.5]];portConstraint=eastwest;" vertex="1" parent="63ENl7EBPZfW6CbWKA2c-33">
          <mxGeometry y="138" width="190" height="26" as="geometry" />
        </mxCell>
        <mxCell id="63ENl7EBPZfW6CbWKA2c-40" value="TalkService" style="swimlane;fontStyle=0;align=center;verticalAlign=top;childLayout=stackLayout;horizontal=1;startSize=26;horizontalStack=0;resizeParent=1;resizeLast=0;collapsible=1;marginBottom=0;rounded=0;shadow=0;strokeWidth=1;" vertex="1" parent="WIyWlLk6GJQsqaUBKTNV-1">
          <mxGeometry x="-120" y="200" width="190" height="170" as="geometry">
            <mxRectangle x="550" y="140" width="160" height="26" as="alternateBounds" />
          </mxGeometry>
        </mxCell>
        <mxCell id="63ENl7EBPZfW6CbWKA2c-41" value="talkRepository TalkRepository " style="text;align=left;verticalAlign=top;spacingLeft=4;spacingRight=4;overflow=hidden;rotatable=0;points=[[0,0.5],[1,0.5]];portConstraint=eastwest;" vertex="1" parent="63ENl7EBPZfW6CbWKA2c-40">
          <mxGeometry y="26" width="190" height="26" as="geometry" />
        </mxCell>
        <mxCell id="63ENl7EBPZfW6CbWKA2c-42" value="" style="line;html=1;strokeWidth=1;align=left;verticalAlign=middle;spacingTop=-1;spacingLeft=3;spacingRight=3;rotatable=0;labelPosition=right;points=[];portConstraint=eastwest;" vertex="1" parent="63ENl7EBPZfW6CbWKA2c-40">
          <mxGeometry y="52" width="190" height="8" as="geometry" />
        </mxCell>
        <mxCell id="63ENl7EBPZfW6CbWKA2c-43" value="+saveTalk()" style="text;align=left;verticalAlign=top;spacingLeft=4;spacingRight=4;overflow=hidden;rotatable=0;points=[[0,0.5],[1,0.5]];portConstraint=eastwest;" vertex="1" parent="63ENl7EBPZfW6CbWKA2c-40">
          <mxGeometry y="60" width="190" height="26" as="geometry" />
        </mxCell>
        <mxCell id="63ENl7EBPZfW6CbWKA2c-44" value="+updateTalk()" style="text;align=left;verticalAlign=top;spacingLeft=4;spacingRight=4;overflow=hidden;rotatable=0;points=[[0,0.5],[1,0.5]];portConstraint=eastwest;" vertex="1" parent="63ENl7EBPZfW6CbWKA2c-40">
          <mxGeometry y="86" width="190" height="26" as="geometry" />
        </mxCell>
        <mxCell id="63ENl7EBPZfW6CbWKA2c-45" value="+checktime()" style="text;align=left;verticalAlign=top;spacingLeft=4;spacingRight=4;overflow=hidden;rotatable=0;points=[[0,0.5],[1,0.5]];portConstraint=eastwest;" vertex="1" parent="63ENl7EBPZfW6CbWKA2c-40">
          <mxGeometry y="112" width="190" height="26" as="geometry" />
        </mxCell>
        <mxCell id="63ENl7EBPZfW6CbWKA2c-46" value="+findAllTalks()" style="text;align=left;verticalAlign=top;spacingLeft=4;spacingRight=4;overflow=hidden;rotatable=0;points=[[0,0.5],[1,0.5]];portConstraint=eastwest;" vertex="1" parent="63ENl7EBPZfW6CbWKA2c-40">
          <mxGeometry y="138" width="190" height="26" as="geometry" />
        </mxCell>
        <mxCell id="63ENl7EBPZfW6CbWKA2c-47" value="GAME" style="swimlane;fontStyle=0;align=center;verticalAlign=top;childLayout=stackLayout;horizontal=1;startSize=26;horizontalStack=0;resizeParent=1;resizeLast=0;collapsible=1;marginBottom=0;rounded=0;shadow=0;strokeWidth=1;" vertex="1" parent="WIyWlLk6GJQsqaUBKTNV-1">
          <mxGeometry x="-800" y="80" width="160" height="190" as="geometry">
            <mxRectangle x="550" y="140" width="160" height="26" as="alternateBounds" />
          </mxGeometry>
        </mxCell>
        <mxCell id="63ENl7EBPZfW6CbWKA2c-48" value="id String" style="text;align=left;verticalAlign=top;spacingLeft=4;spacingRight=4;overflow=hidden;rotatable=0;points=[[0,0.5],[1,0.5]];portConstraint=eastwest;" vertex="1" parent="63ENl7EBPZfW6CbWKA2c-47">
          <mxGeometry y="26" width="160" height="26" as="geometry" />
        </mxCell>
        <mxCell id="63ENl7EBPZfW6CbWKA2c-49" value="chatroom String" style="text;align=left;verticalAlign=top;spacingLeft=4;spacingRight=4;overflow=hidden;rotatable=0;points=[[0,0.5],[1,0.5]];portConstraint=eastwest;rounded=0;shadow=0;html=0;" vertex="1" parent="63ENl7EBPZfW6CbWKA2c-47">
          <mxGeometry y="52" width="160" height="26" as="geometry" />
        </mxCell>
        <mxCell id="63ENl7EBPZfW6CbWKA2c-50" value="gameid int" style="text;align=left;verticalAlign=top;spacingLeft=4;spacingRight=4;overflow=hidden;rotatable=0;points=[[0,0.5],[1,0.5]];portConstraint=eastwest;rounded=0;shadow=0;html=0;" vertex="1" parent="63ENl7EBPZfW6CbWKA2c-47">
          <mxGeometry y="78" width="160" height="26" as="geometry" />
        </mxCell>
        <mxCell id="63ENl7EBPZfW6CbWKA2c-51" value="" style="line;html=1;strokeWidth=1;align=left;verticalAlign=middle;spacingTop=-1;spacingLeft=3;spacingRight=3;rotatable=0;labelPosition=right;points=[];portConstraint=eastwest;" vertex="1" parent="63ENl7EBPZfW6CbWKA2c-47">
          <mxGeometry y="104" width="160" height="8" as="geometry" />
        </mxCell>
        <mxCell id="63ENl7EBPZfW6CbWKA2c-52" value="+setid()" style="text;align=left;verticalAlign=top;spacingLeft=4;spacingRight=4;overflow=hidden;rotatable=0;points=[[0,0.5],[1,0.5]];portConstraint=eastwest;" vertex="1" parent="63ENl7EBPZfW6CbWKA2c-47">
          <mxGeometry y="112" width="160" height="26" as="geometry" />
        </mxCell>
        <mxCell id="63ENl7EBPZfW6CbWKA2c-53" value="+getid()" style="text;align=left;verticalAlign=top;spacingLeft=4;spacingRight=4;overflow=hidden;rotatable=0;points=[[0,0.5],[1,0.5]];portConstraint=eastwest;" vertex="1" parent="63ENl7EBPZfW6CbWKA2c-47">
          <mxGeometry y="138" width="160" height="26" as="geometry" />
        </mxCell>
        <mxCell id="63ENl7EBPZfW6CbWKA2c-54" value="……" style="text;align=left;verticalAlign=top;spacingLeft=4;spacingRight=4;overflow=hidden;rotatable=0;points=[[0,0.5],[1,0.5]];portConstraint=eastwest;" vertex="1" parent="63ENl7EBPZfW6CbWKA2c-47">
          <mxGeometry y="164" width="160" height="26" as="geometry" />
        </mxCell>
        <mxCell id="63ENl7EBPZfW6CbWKA2c-55" value="GameService" style="swimlane;fontStyle=0;align=center;verticalAlign=top;childLayout=stackLayout;horizontal=1;startSize=26;horizontalStack=0;resizeParent=1;resizeLast=0;collapsible=1;marginBottom=0;rounded=0;shadow=0;strokeWidth=1;" vertex="1" parent="WIyWlLk6GJQsqaUBKTNV-1">
          <mxGeometry x="-1030" y="100" width="190" height="170" as="geometry">
            <mxRectangle x="550" y="140" width="160" height="26" as="alternateBounds" />
          </mxGeometry>
        </mxCell>
        <mxCell id="63ENl7EBPZfW6CbWKA2c-56" value="gameRepository GameRepository " style="text;align=left;verticalAlign=top;spacingLeft=4;spacingRight=4;overflow=hidden;rotatable=0;points=[[0,0.5],[1,0.5]];portConstraint=eastwest;" vertex="1" parent="63ENl7EBPZfW6CbWKA2c-55">
          <mxGeometry y="26" width="190" height="26" as="geometry" />
        </mxCell>
        <mxCell id="63ENl7EBPZfW6CbWKA2c-57" value="" style="line;html=1;strokeWidth=1;align=left;verticalAlign=middle;spacingTop=-1;spacingLeft=3;spacingRight=3;rotatable=0;labelPosition=right;points=[];portConstraint=eastwest;" vertex="1" parent="63ENl7EBPZfW6CbWKA2c-55">
          <mxGeometry y="52" width="190" height="8" as="geometry" />
        </mxCell>
        <mxCell id="63ENl7EBPZfW6CbWKA2c-58" value="+saveGame()" style="text;align=left;verticalAlign=top;spacingLeft=4;spacingRight=4;overflow=hidden;rotatable=0;points=[[0,0.5],[1,0.5]];portConstraint=eastwest;" vertex="1" parent="63ENl7EBPZfW6CbWKA2c-55">
          <mxGeometry y="60" width="190" height="26" as="geometry" />
        </mxCell>
        <mxCell id="63ENl7EBPZfW6CbWKA2c-59" value="+updateGame()" style="text;align=left;verticalAlign=top;spacingLeft=4;spacingRight=4;overflow=hidden;rotatable=0;points=[[0,0.5],[1,0.5]];portConstraint=eastwest;" vertex="1" parent="63ENl7EBPZfW6CbWKA2c-55">
          <mxGeometry y="86" width="190" height="26" as="geometry" />
        </mxCell>
        <mxCell id="63ENl7EBPZfW6CbWKA2c-60" value="+checkid()" style="text;align=left;verticalAlign=top;spacingLeft=4;spacingRight=4;overflow=hidden;rotatable=0;points=[[0,0.5],[1,0.5]];portConstraint=eastwest;" vertex="1" parent="63ENl7EBPZfW6CbWKA2c-55">
          <mxGeometry y="112" width="190" height="26" as="geometry" />
        </mxCell>
        <mxCell id="63ENl7EBPZfW6CbWKA2c-61" value="+findAllGames()" style="text;align=left;verticalAlign=top;spacingLeft=4;spacingRight=4;overflow=hidden;rotatable=0;points=[[0,0.5],[1,0.5]];portConstraint=eastwest;" vertex="1" parent="63ENl7EBPZfW6CbWKA2c-55">
          <mxGeometry y="138" width="190" height="26" as="geometry" />
        </mxCell>
        <mxCell id="63ENl7EBPZfW6CbWKA2c-62" value="«interface»&lt;br&gt;RoomRepository" style="html=1;whiteSpace=wrap;" vertex="1" parent="WIyWlLk6GJQsqaUBKTNV-1">
          <mxGeometry x="-580" y="620" width="110" height="50" as="geometry" />
        </mxCell>
        <mxCell id="63ENl7EBPZfW6CbWKA2c-63" value="«interface»&lt;br&gt;TalkRepository" style="html=1;whiteSpace=wrap;" vertex="1" parent="WIyWlLk6GJQsqaUBKTNV-1">
          <mxGeometry x="-80" y="110" width="110" height="50" as="geometry" />
        </mxCell>
        <mxCell id="63ENl7EBPZfW6CbWKA2c-64" value="«interface»&lt;br&gt;UserRepository" style="html=1;whiteSpace=wrap;" vertex="1" parent="WIyWlLk6GJQsqaUBKTNV-1">
          <mxGeometry x="-575" y="-300" width="110" height="50" as="geometry" />
        </mxCell>
        <mxCell id="63ENl7EBPZfW6CbWKA2c-65" value="«interface»&lt;br&gt;GameRepository" style="html=1;whiteSpace=wrap;" vertex="1" parent="WIyWlLk6GJQsqaUBKTNV-1">
          <mxGeometry x="-990" y="10" width="110" height="50" as="geometry" />
        </mxCell>
        <mxCell id="63ENl7EBPZfW6CbWKA2c-66" value="" style="endArrow=block;dashed=1;endFill=0;endSize=12;html=1;rounded=0;" edge="1" parent="WIyWlLk6GJQsqaUBKTNV-1" source="63ENl7EBPZfW6CbWKA2c-24" target="63ENl7EBPZfW6CbWKA2c-64">
          <mxGeometry width="160" relative="1" as="geometry">
            <mxPoint x="-425" y="-95" as="sourcePoint" />
            <mxPoint x="-265" y="-95" as="targetPoint" />
          </mxGeometry>
        </mxCell>
        <mxCell id="63ENl7EBPZfW6CbWKA2c-67" value="" style="endArrow=block;dashed=1;endFill=0;endSize=12;html=1;rounded=0;" edge="1" parent="WIyWlLk6GJQsqaUBKTNV-1" source="63ENl7EBPZfW6CbWKA2c-40" target="63ENl7EBPZfW6CbWKA2c-63">
          <mxGeometry width="160" relative="1" as="geometry">
            <mxPoint x="80" y="-10" as="sourcePoint" />
            <mxPoint x="240" y="-10" as="targetPoint" />
          </mxGeometry>
        </mxCell>
        <mxCell id="63ENl7EBPZfW6CbWKA2c-68" value="" style="endArrow=block;dashed=1;endFill=0;endSize=12;html=1;rounded=0;" edge="1" parent="WIyWlLk6GJQsqaUBKTNV-1" source="63ENl7EBPZfW6CbWKA2c-33" target="63ENl7EBPZfW6CbWKA2c-62">
          <mxGeometry width="160" relative="1" as="geometry">
            <mxPoint x="-920" y="775" as="sourcePoint" />
            <mxPoint x="-760" y="775" as="targetPoint" />
          </mxGeometry>
        </mxCell>
        <mxCell id="63ENl7EBPZfW6CbWKA2c-69" value="" style="endArrow=block;dashed=1;endFill=0;endSize=12;html=1;rounded=0;" edge="1" parent="WIyWlLk6GJQsqaUBKTNV-1" source="63ENl7EBPZfW6CbWKA2c-55" target="63ENl7EBPZfW6CbWKA2c-65">
          <mxGeometry width="160" relative="1" as="geometry">
            <mxPoint x="-1151" y="80" as="sourcePoint" />
            <mxPoint x="-991" y="80" as="targetPoint" />
          </mxGeometry>
        </mxCell>
        <mxCell id="63ENl7EBPZfW6CbWKA2c-70" value="UserController" style="swimlane;fontStyle=0;align=center;verticalAlign=top;childLayout=stackLayout;horizontal=1;startSize=26;horizontalStack=0;resizeParent=1;resizeLast=0;collapsible=1;marginBottom=0;rounded=0;shadow=0;strokeWidth=1;" vertex="1" parent="WIyWlLk6GJQsqaUBKTNV-1">
          <mxGeometry x="-374" y="-290" width="160" height="170" as="geometry">
            <mxRectangle x="550" y="140" width="160" height="26" as="alternateBounds" />
          </mxGeometry>
        </mxCell>
        <mxCell id="63ENl7EBPZfW6CbWKA2c-71" value="userService UserService" style="text;align=left;verticalAlign=top;spacingLeft=4;spacingRight=4;overflow=hidden;rotatable=0;points=[[0,0.5],[1,0.5]];portConstraint=eastwest;" vertex="1" parent="63ENl7EBPZfW6CbWKA2c-70">
          <mxGeometry y="26" width="160" height="26" as="geometry" />
        </mxCell>
        <mxCell id="63ENl7EBPZfW6CbWKA2c-72" value="userMap UserMap" style="text;align=left;verticalAlign=top;spacingLeft=4;spacingRight=4;overflow=hidden;rotatable=0;points=[[0,0.5],[1,0.5]];portConstraint=eastwest;rounded=0;shadow=0;html=0;" vertex="1" parent="63ENl7EBPZfW6CbWKA2c-70">
          <mxGeometry y="52" width="160" height="26" as="geometry" />
        </mxCell>
        <mxCell id="63ENl7EBPZfW6CbWKA2c-74" value="" style="line;html=1;strokeWidth=1;align=left;verticalAlign=middle;spacingTop=-1;spacingLeft=3;spacingRight=3;rotatable=0;labelPosition=right;points=[];portConstraint=eastwest;" vertex="1" parent="63ENl7EBPZfW6CbWKA2c-70">
          <mxGeometry y="78" width="160" height="8" as="geometry" />
        </mxCell>
        <mxCell id="63ENl7EBPZfW6CbWKA2c-75" value="+register()" style="text;align=left;verticalAlign=top;spacingLeft=4;spacingRight=4;overflow=hidden;rotatable=0;points=[[0,0.5],[1,0.5]];portConstraint=eastwest;" vertex="1" parent="63ENl7EBPZfW6CbWKA2c-70">
          <mxGeometry y="86" width="160" height="26" as="geometry" />
        </mxCell>
        <mxCell id="63ENl7EBPZfW6CbWKA2c-76" value="+login()" style="text;align=left;verticalAlign=top;spacingLeft=4;spacingRight=4;overflow=hidden;rotatable=0;points=[[0,0.5],[1,0.5]];portConstraint=eastwest;" vertex="1" parent="63ENl7EBPZfW6CbWKA2c-70">
          <mxGeometry y="112" width="160" height="26" as="geometry" />
        </mxCell>
        <mxCell id="63ENl7EBPZfW6CbWKA2c-77" value="……" style="text;align=left;verticalAlign=top;spacingLeft=4;spacingRight=4;overflow=hidden;rotatable=0;points=[[0,0.5],[1,0.5]];portConstraint=eastwest;" vertex="1" parent="63ENl7EBPZfW6CbWKA2c-70">
          <mxGeometry y="138" width="160" height="26" as="geometry" />
        </mxCell>
        <mxCell id="63ENl7EBPZfW6CbWKA2c-78" value="RoomController" style="swimlane;fontStyle=0;align=center;verticalAlign=top;childLayout=stackLayout;horizontal=1;startSize=26;horizontalStack=0;resizeParent=1;resizeLast=0;collapsible=1;marginBottom=0;rounded=0;shadow=0;strokeWidth=1;" vertex="1" parent="WIyWlLk6GJQsqaUBKTNV-1">
          <mxGeometry x="-860" y="800" width="160" height="200" as="geometry">
            <mxRectangle x="550" y="140" width="160" height="26" as="alternateBounds" />
          </mxGeometry>
        </mxCell>
        <mxCell id="63ENl7EBPZfW6CbWKA2c-79" value="roomService RoomService" style="text;align=left;verticalAlign=top;spacingLeft=4;spacingRight=4;overflow=hidden;rotatable=0;points=[[0,0.5],[1,0.5]];portConstraint=eastwest;" vertex="1" parent="63ENl7EBPZfW6CbWKA2c-78">
          <mxGeometry y="26" width="160" height="26" as="geometry" />
        </mxCell>
        <mxCell id="63ENl7EBPZfW6CbWKA2c-80" value="roomMap RoomMap" style="text;align=left;verticalAlign=top;spacingLeft=4;spacingRight=4;overflow=hidden;rotatable=0;points=[[0,0.5],[1,0.5]];portConstraint=eastwest;rounded=0;shadow=0;html=0;" vertex="1" parent="63ENl7EBPZfW6CbWKA2c-78">
          <mxGeometry y="52" width="160" height="26" as="geometry" />
        </mxCell>
        <mxCell id="63ENl7EBPZfW6CbWKA2c-110" value="userService UserService" style="text;align=left;verticalAlign=top;spacingLeft=4;spacingRight=4;overflow=hidden;rotatable=0;points=[[0,0.5],[1,0.5]];portConstraint=eastwest;rounded=0;shadow=0;html=0;" vertex="1" parent="63ENl7EBPZfW6CbWKA2c-78">
          <mxGeometry y="78" width="160" height="26" as="geometry" />
        </mxCell>
        <mxCell id="63ENl7EBPZfW6CbWKA2c-81" value="" style="line;html=1;strokeWidth=1;align=left;verticalAlign=middle;spacingTop=-1;spacingLeft=3;spacingRight=3;rotatable=0;labelPosition=right;points=[];portConstraint=eastwest;" vertex="1" parent="63ENl7EBPZfW6CbWKA2c-78">
          <mxGeometry y="104" width="160" height="8" as="geometry" />
        </mxCell>
        <mxCell id="63ENl7EBPZfW6CbWKA2c-82" value="+add()" style="text;align=left;verticalAlign=top;spacingLeft=4;spacingRight=4;overflow=hidden;rotatable=0;points=[[0,0.5],[1,0.5]];portConstraint=eastwest;" vertex="1" parent="63ENl7EBPZfW6CbWKA2c-78">
          <mxGeometry y="112" width="160" height="26" as="geometry" />
        </mxCell>
        <mxCell id="63ENl7EBPZfW6CbWKA2c-83" value="+roomshow()" style="text;align=left;verticalAlign=top;spacingLeft=4;spacingRight=4;overflow=hidden;rotatable=0;points=[[0,0.5],[1,0.5]];portConstraint=eastwest;" vertex="1" parent="63ENl7EBPZfW6CbWKA2c-78">
          <mxGeometry y="138" width="160" height="26" as="geometry" />
        </mxCell>
        <mxCell id="63ENl7EBPZfW6CbWKA2c-84" value="……" style="text;align=left;verticalAlign=top;spacingLeft=4;spacingRight=4;overflow=hidden;rotatable=0;points=[[0,0.5],[1,0.5]];portConstraint=eastwest;" vertex="1" parent="63ENl7EBPZfW6CbWKA2c-78">
          <mxGeometry y="164" width="160" height="26" as="geometry" />
        </mxCell>
        <mxCell id="63ENl7EBPZfW6CbWKA2c-85" value="TalkController" style="swimlane;fontStyle=0;align=center;verticalAlign=top;childLayout=stackLayout;horizontal=1;startSize=26;horizontalStack=0;resizeParent=1;resizeLast=0;collapsible=1;marginBottom=0;rounded=0;shadow=0;strokeWidth=1;" vertex="1" parent="WIyWlLk6GJQsqaUBKTNV-1">
          <mxGeometry x="-130" y="468" width="190" height="242" as="geometry">
            <mxRectangle x="550" y="140" width="160" height="26" as="alternateBounds" />
          </mxGeometry>
        </mxCell>
        <mxCell id="63ENl7EBPZfW6CbWKA2c-86" value="talkService TalkService" style="text;align=left;verticalAlign=top;spacingLeft=4;spacingRight=4;overflow=hidden;rotatable=0;points=[[0,0.5],[1,0.5]];portConstraint=eastwest;" vertex="1" parent="63ENl7EBPZfW6CbWKA2c-85">
          <mxGeometry y="26" width="190" height="26" as="geometry" />
        </mxCell>
        <mxCell id="63ENl7EBPZfW6CbWKA2c-87" value="talkMap TalkMap" style="text;align=left;verticalAlign=top;spacingLeft=4;spacingRight=4;overflow=hidden;rotatable=0;points=[[0,0.5],[1,0.5]];portConstraint=eastwest;rounded=0;shadow=0;html=0;" vertex="1" parent="63ENl7EBPZfW6CbWKA2c-85">
          <mxGeometry y="52" width="190" height="26" as="geometry" />
        </mxCell>
        <mxCell id="63ENl7EBPZfW6CbWKA2c-111" value="talkMap TalkMap" style="text;align=left;verticalAlign=top;spacingLeft=4;spacingRight=4;overflow=hidden;rotatable=0;points=[[0,0.5],[1,0.5]];portConstraint=eastwest;rounded=0;shadow=0;html=0;" vertex="1" parent="63ENl7EBPZfW6CbWKA2c-85">
          <mxGeometry y="78" width="190" height="26" as="geometry" />
        </mxCell>
        <mxCell id="63ENl7EBPZfW6CbWKA2c-108" value="userService UserService" style="text;align=left;verticalAlign=top;spacingLeft=4;spacingRight=4;overflow=hidden;rotatable=0;points=[[0,0.5],[1,0.5]];portConstraint=eastwest;rounded=0;shadow=0;html=0;" vertex="1" parent="63ENl7EBPZfW6CbWKA2c-85">
          <mxGeometry y="104" width="190" height="26" as="geometry" />
        </mxCell>
        <mxCell id="63ENl7EBPZfW6CbWKA2c-109" value="assistantService AssistantService" style="text;align=left;verticalAlign=top;spacingLeft=4;spacingRight=4;overflow=hidden;rotatable=0;points=[[0,0.5],[1,0.5]];portConstraint=eastwest;" vertex="1" parent="63ENl7EBPZfW6CbWKA2c-85">
          <mxGeometry y="130" width="190" height="26" as="geometry" />
        </mxCell>
        <mxCell id="63ENl7EBPZfW6CbWKA2c-88" value="" style="line;html=1;strokeWidth=1;align=left;verticalAlign=middle;spacingTop=-1;spacingLeft=3;spacingRight=3;rotatable=0;labelPosition=right;points=[];portConstraint=eastwest;" vertex="1" parent="63ENl7EBPZfW6CbWKA2c-85">
          <mxGeometry y="156" width="190" height="8" as="geometry" />
        </mxCell>
        <mxCell id="63ENl7EBPZfW6CbWKA2c-89" value="+show()" style="text;align=left;verticalAlign=top;spacingLeft=4;spacingRight=4;overflow=hidden;rotatable=0;points=[[0,0.5],[1,0.5]];portConstraint=eastwest;" vertex="1" parent="63ENl7EBPZfW6CbWKA2c-85">
          <mxGeometry y="164" width="190" height="26" as="geometry" />
        </mxCell>
        <mxCell id="63ENl7EBPZfW6CbWKA2c-90" value="+list()" style="text;align=left;verticalAlign=top;spacingLeft=4;spacingRight=4;overflow=hidden;rotatable=0;points=[[0,0.5],[1,0.5]];portConstraint=eastwest;" vertex="1" parent="63ENl7EBPZfW6CbWKA2c-85">
          <mxGeometry y="190" width="190" height="26" as="geometry" />
        </mxCell>
        <mxCell id="63ENl7EBPZfW6CbWKA2c-91" value="……" style="text;align=left;verticalAlign=top;spacingLeft=4;spacingRight=4;overflow=hidden;rotatable=0;points=[[0,0.5],[1,0.5]];portConstraint=eastwest;" vertex="1" parent="63ENl7EBPZfW6CbWKA2c-85">
          <mxGeometry y="216" width="190" height="26" as="geometry" />
        </mxCell>
        <mxCell id="63ENl7EBPZfW6CbWKA2c-92" value="AssitantmyService" style="swimlane;fontStyle=0;align=center;verticalAlign=top;childLayout=stackLayout;horizontal=1;startSize=26;horizontalStack=0;resizeParent=1;resizeLast=0;collapsible=1;marginBottom=0;rounded=0;shadow=0;strokeWidth=1;" vertex="1" parent="WIyWlLk6GJQsqaUBKTNV-1">
          <mxGeometry x="-190" y="-20" width="190" height="100" as="geometry">
            <mxRectangle x="550" y="140" width="160" height="26" as="alternateBounds" />
          </mxGeometry>
        </mxCell>
        <mxCell id="63ENl7EBPZfW6CbWKA2c-93" value="assistant Assistant" style="text;align=left;verticalAlign=top;spacingLeft=4;spacingRight=4;overflow=hidden;rotatable=0;points=[[0,0.5],[1,0.5]];portConstraint=eastwest;" vertex="1" parent="63ENl7EBPZfW6CbWKA2c-92">
          <mxGeometry y="26" width="190" height="26" as="geometry" />
        </mxCell>
        <mxCell id="63ENl7EBPZfW6CbWKA2c-94" value="" style="line;html=1;strokeWidth=1;align=left;verticalAlign=middle;spacingTop=-1;spacingLeft=3;spacingRight=3;rotatable=0;labelPosition=right;points=[];portConstraint=eastwest;" vertex="1" parent="63ENl7EBPZfW6CbWKA2c-92">
          <mxGeometry y="52" width="190" height="8" as="geometry" />
        </mxCell>
        <mxCell id="63ENl7EBPZfW6CbWKA2c-95" value="+assitant()" style="text;align=left;verticalAlign=top;spacingLeft=4;spacingRight=4;overflow=hidden;rotatable=0;points=[[0,0.5],[1,0.5]];portConstraint=eastwest;" vertex="1" parent="63ENl7EBPZfW6CbWKA2c-92">
          <mxGeometry y="60" width="190" height="26" as="geometry" />
        </mxCell>
        <mxCell id="63ENl7EBPZfW6CbWKA2c-99" value="«interface»&lt;br&gt;Assistant" style="html=1;whiteSpace=wrap;" vertex="1" parent="WIyWlLk6GJQsqaUBKTNV-1">
          <mxGeometry x="-150" y="-110" width="110" height="50" as="geometry" />
        </mxCell>
        <mxCell id="63ENl7EBPZfW6CbWKA2c-100" value="" style="endArrow=block;dashed=1;endFill=0;endSize=12;html=1;rounded=0;" edge="1" parent="WIyWlLk6GJQsqaUBKTNV-1" source="63ENl7EBPZfW6CbWKA2c-92" target="63ENl7EBPZfW6CbWKA2c-99">
          <mxGeometry width="160" relative="1" as="geometry">
            <mxPoint x="-340" y="-120" as="sourcePoint" />
            <mxPoint x="-180" y="-120" as="targetPoint" />
          </mxGeometry>
        </mxCell>
        <mxCell id="63ENl7EBPZfW6CbWKA2c-101" value="GameController" style="swimlane;fontStyle=0;align=center;verticalAlign=top;childLayout=stackLayout;horizontal=1;startSize=26;horizontalStack=0;resizeParent=1;resizeLast=0;collapsible=1;marginBottom=0;rounded=0;shadow=0;strokeWidth=1;" vertex="1" parent="WIyWlLk6GJQsqaUBKTNV-1">
          <mxGeometry x="-1270" y="135" width="160" height="170" as="geometry">
            <mxRectangle x="550" y="140" width="160" height="26" as="alternateBounds" />
          </mxGeometry>
        </mxCell>
        <mxCell id="63ENl7EBPZfW6CbWKA2c-102" value="gameService GameService" style="text;align=left;verticalAlign=top;spacingLeft=4;spacingRight=4;overflow=hidden;rotatable=0;points=[[0,0.5],[1,0.5]];portConstraint=eastwest;" vertex="1" parent="63ENl7EBPZfW6CbWKA2c-101">
          <mxGeometry y="26" width="160" height="26" as="geometry" />
        </mxCell>
        <mxCell id="63ENl7EBPZfW6CbWKA2c-103" value="gameMap GameMap" style="text;align=left;verticalAlign=top;spacingLeft=4;spacingRight=4;overflow=hidden;rotatable=0;points=[[0,0.5],[1,0.5]];portConstraint=eastwest;rounded=0;shadow=0;html=0;" vertex="1" parent="63ENl7EBPZfW6CbWKA2c-101">
          <mxGeometry y="52" width="160" height="26" as="geometry" />
        </mxCell>
        <mxCell id="63ENl7EBPZfW6CbWKA2c-104" value="" style="line;html=1;strokeWidth=1;align=left;verticalAlign=middle;spacingTop=-1;spacingLeft=3;spacingRight=3;rotatable=0;labelPosition=right;points=[];portConstraint=eastwest;" vertex="1" parent="63ENl7EBPZfW6CbWKA2c-101">
          <mxGeometry y="78" width="160" height="8" as="geometry" />
        </mxCell>
        <mxCell id="63ENl7EBPZfW6CbWKA2c-105" value="+show()" style="text;align=left;verticalAlign=top;spacingLeft=4;spacingRight=4;overflow=hidden;rotatable=0;points=[[0,0.5],[1,0.5]];portConstraint=eastwest;" vertex="1" parent="63ENl7EBPZfW6CbWKA2c-101">
          <mxGeometry y="86" width="160" height="26" as="geometry" />
        </mxCell>
        <mxCell id="63ENl7EBPZfW6CbWKA2c-106" value="+list()" style="text;align=left;verticalAlign=top;spacingLeft=4;spacingRight=4;overflow=hidden;rotatable=0;points=[[0,0.5],[1,0.5]];portConstraint=eastwest;" vertex="1" parent="63ENl7EBPZfW6CbWKA2c-101">
          <mxGeometry y="112" width="160" height="26" as="geometry" />
        </mxCell>
        <mxCell id="63ENl7EBPZfW6CbWKA2c-107" value="……" style="text;align=left;verticalAlign=top;spacingLeft=4;spacingRight=4;overflow=hidden;rotatable=0;points=[[0,0.5],[1,0.5]];portConstraint=eastwest;" vertex="1" parent="63ENl7EBPZfW6CbWKA2c-101">
          <mxGeometry y="138" width="160" height="26" as="geometry" />
        </mxCell>
        <mxCell id="63ENl7EBPZfW6CbWKA2c-112" value="UserMap" style="swimlane;fontStyle=0;align=center;verticalAlign=top;childLayout=stackLayout;horizontal=1;startSize=26;horizontalStack=0;resizeParent=1;resizeLast=0;collapsible=1;marginBottom=0;rounded=0;shadow=0;strokeWidth=1;" vertex="1" parent="WIyWlLk6GJQsqaUBKTNV-1">
          <mxGeometry x="-920" y="-410" width="230" height="170" as="geometry">
            <mxRectangle x="550" y="140" width="160" height="26" as="alternateBounds" />
          </mxGeometry>
        </mxCell>
        <mxCell id="63ENl7EBPZfW6CbWKA2c-113" value="hazelcastInstance HazelcastInstance" style="text;align=left;verticalAlign=top;spacingLeft=4;spacingRight=4;overflow=hidden;rotatable=0;points=[[0,0.5],[1,0.5]];portConstraint=eastwest;" vertex="1" parent="63ENl7EBPZfW6CbWKA2c-112">
          <mxGeometry y="26" width="230" height="26" as="geometry" />
        </mxCell>
        <mxCell id="63ENl7EBPZfW6CbWKA2c-114" value="userMap IMap&lt;String, User&gt; " style="text;align=left;verticalAlign=top;spacingLeft=4;spacingRight=4;overflow=hidden;rotatable=0;points=[[0,0.5],[1,0.5]];portConstraint=eastwest;rounded=0;shadow=0;html=0;" vertex="1" parent="63ENl7EBPZfW6CbWKA2c-112">
          <mxGeometry y="52" width="230" height="26" as="geometry" />
        </mxCell>
        <mxCell id="63ENl7EBPZfW6CbWKA2c-115" value="" style="line;html=1;strokeWidth=1;align=left;verticalAlign=middle;spacingTop=-1;spacingLeft=3;spacingRight=3;rotatable=0;labelPosition=right;points=[];portConstraint=eastwest;" vertex="1" parent="63ENl7EBPZfW6CbWKA2c-112">
          <mxGeometry y="78" width="230" height="8" as="geometry" />
        </mxCell>
        <mxCell id="63ENl7EBPZfW6CbWKA2c-116" value="+writetoMap()" style="text;align=left;verticalAlign=top;spacingLeft=4;spacingRight=4;overflow=hidden;rotatable=0;points=[[0,0.5],[1,0.5]];portConstraint=eastwest;" vertex="1" parent="63ENl7EBPZfW6CbWKA2c-112">
          <mxGeometry y="86" width="230" height="26" as="geometry" />
        </mxCell>
        <mxCell id="63ENl7EBPZfW6CbWKA2c-117" value="+updateMap()" style="text;align=left;verticalAlign=top;spacingLeft=4;spacingRight=4;overflow=hidden;rotatable=0;points=[[0,0.5],[1,0.5]];portConstraint=eastwest;" vertex="1" parent="63ENl7EBPZfW6CbWKA2c-112">
          <mxGeometry y="112" width="230" height="26" as="geometry" />
        </mxCell>
        <mxCell id="63ENl7EBPZfW6CbWKA2c-118" value="……" style="text;align=left;verticalAlign=top;spacingLeft=4;spacingRight=4;overflow=hidden;rotatable=0;points=[[0,0.5],[1,0.5]];portConstraint=eastwest;" vertex="1" parent="63ENl7EBPZfW6CbWKA2c-112">
          <mxGeometry y="138" width="230" height="26" as="geometry" />
        </mxCell>
        <mxCell id="63ENl7EBPZfW6CbWKA2c-119" value="RoomMap" style="swimlane;fontStyle=0;align=center;verticalAlign=top;childLayout=stackLayout;horizontal=1;startSize=26;horizontalStack=0;resizeParent=1;resizeLast=0;collapsible=1;marginBottom=0;rounded=0;shadow=0;strokeWidth=1;" vertex="1" parent="WIyWlLk6GJQsqaUBKTNV-1">
          <mxGeometry x="-930" y="370" width="230" height="170" as="geometry">
            <mxRectangle x="550" y="140" width="160" height="26" as="alternateBounds" />
          </mxGeometry>
        </mxCell>
        <mxCell id="63ENl7EBPZfW6CbWKA2c-120" value="hazelcastInstance HazelcastInstance" style="text;align=left;verticalAlign=top;spacingLeft=4;spacingRight=4;overflow=hidden;rotatable=0;points=[[0,0.5],[1,0.5]];portConstraint=eastwest;" vertex="1" parent="63ENl7EBPZfW6CbWKA2c-119">
          <mxGeometry y="26" width="230" height="26" as="geometry" />
        </mxCell>
        <mxCell id="63ENl7EBPZfW6CbWKA2c-121" value="roomMap IMap&lt;String, Room&gt; " style="text;align=left;verticalAlign=top;spacingLeft=4;spacingRight=4;overflow=hidden;rotatable=0;points=[[0,0.5],[1,0.5]];portConstraint=eastwest;rounded=0;shadow=0;html=0;" vertex="1" parent="63ENl7EBPZfW6CbWKA2c-119">
          <mxGeometry y="52" width="230" height="26" as="geometry" />
        </mxCell>
        <mxCell id="63ENl7EBPZfW6CbWKA2c-122" value="" style="line;html=1;strokeWidth=1;align=left;verticalAlign=middle;spacingTop=-1;spacingLeft=3;spacingRight=3;rotatable=0;labelPosition=right;points=[];portConstraint=eastwest;" vertex="1" parent="63ENl7EBPZfW6CbWKA2c-119">
          <mxGeometry y="78" width="230" height="8" as="geometry" />
        </mxCell>
        <mxCell id="63ENl7EBPZfW6CbWKA2c-123" value="+writetoMap()" style="text;align=left;verticalAlign=top;spacingLeft=4;spacingRight=4;overflow=hidden;rotatable=0;points=[[0,0.5],[1,0.5]];portConstraint=eastwest;" vertex="1" parent="63ENl7EBPZfW6CbWKA2c-119">
          <mxGeometry y="86" width="230" height="26" as="geometry" />
        </mxCell>
        <mxCell id="63ENl7EBPZfW6CbWKA2c-124" value="+updateMap()" style="text;align=left;verticalAlign=top;spacingLeft=4;spacingRight=4;overflow=hidden;rotatable=0;points=[[0,0.5],[1,0.5]];portConstraint=eastwest;" vertex="1" parent="63ENl7EBPZfW6CbWKA2c-119">
          <mxGeometry y="112" width="230" height="26" as="geometry" />
        </mxCell>
        <mxCell id="63ENl7EBPZfW6CbWKA2c-125" value="……" style="text;align=left;verticalAlign=top;spacingLeft=4;spacingRight=4;overflow=hidden;rotatable=0;points=[[0,0.5],[1,0.5]];portConstraint=eastwest;" vertex="1" parent="63ENl7EBPZfW6CbWKA2c-119">
          <mxGeometry y="138" width="230" height="26" as="geometry" />
        </mxCell>
        <mxCell id="63ENl7EBPZfW6CbWKA2c-126" value="TalkMap" style="swimlane;fontStyle=0;align=center;verticalAlign=top;childLayout=stackLayout;horizontal=1;startSize=26;horizontalStack=0;resizeParent=1;resizeLast=0;collapsible=1;marginBottom=0;rounded=0;shadow=0;strokeWidth=1;" vertex="1" parent="WIyWlLk6GJQsqaUBKTNV-1">
          <mxGeometry x="-413" y="490" width="230" height="170" as="geometry">
            <mxRectangle x="550" y="140" width="160" height="26" as="alternateBounds" />
          </mxGeometry>
        </mxCell>
        <mxCell id="63ENl7EBPZfW6CbWKA2c-127" value="hazelcastInstance HazelcastInstance" style="text;align=left;verticalAlign=top;spacingLeft=4;spacingRight=4;overflow=hidden;rotatable=0;points=[[0,0.5],[1,0.5]];portConstraint=eastwest;" vertex="1" parent="63ENl7EBPZfW6CbWKA2c-126">
          <mxGeometry y="26" width="230" height="26" as="geometry" />
        </mxCell>
        <mxCell id="63ENl7EBPZfW6CbWKA2c-128" value="talkMap IMap&lt;String, Talk&gt; " style="text;align=left;verticalAlign=top;spacingLeft=4;spacingRight=4;overflow=hidden;rotatable=0;points=[[0,0.5],[1,0.5]];portConstraint=eastwest;rounded=0;shadow=0;html=0;" vertex="1" parent="63ENl7EBPZfW6CbWKA2c-126">
          <mxGeometry y="52" width="230" height="26" as="geometry" />
        </mxCell>
        <mxCell id="63ENl7EBPZfW6CbWKA2c-129" value="" style="line;html=1;strokeWidth=1;align=left;verticalAlign=middle;spacingTop=-1;spacingLeft=3;spacingRight=3;rotatable=0;labelPosition=right;points=[];portConstraint=eastwest;" vertex="1" parent="63ENl7EBPZfW6CbWKA2c-126">
          <mxGeometry y="78" width="230" height="8" as="geometry" />
        </mxCell>
        <mxCell id="63ENl7EBPZfW6CbWKA2c-130" value="+writetoMap()" style="text;align=left;verticalAlign=top;spacingLeft=4;spacingRight=4;overflow=hidden;rotatable=0;points=[[0,0.5],[1,0.5]];portConstraint=eastwest;" vertex="1" parent="63ENl7EBPZfW6CbWKA2c-126">
          <mxGeometry y="86" width="230" height="26" as="geometry" />
        </mxCell>
        <mxCell id="63ENl7EBPZfW6CbWKA2c-131" value="+updateMap()" style="text;align=left;verticalAlign=top;spacingLeft=4;spacingRight=4;overflow=hidden;rotatable=0;points=[[0,0.5],[1,0.5]];portConstraint=eastwest;" vertex="1" parent="63ENl7EBPZfW6CbWKA2c-126">
          <mxGeometry y="112" width="230" height="26" as="geometry" />
        </mxCell>
        <mxCell id="63ENl7EBPZfW6CbWKA2c-132" value="……" style="text;align=left;verticalAlign=top;spacingLeft=4;spacingRight=4;overflow=hidden;rotatable=0;points=[[0,0.5],[1,0.5]];portConstraint=eastwest;" vertex="1" parent="63ENl7EBPZfW6CbWKA2c-126">
          <mxGeometry y="138" width="230" height="26" as="geometry" />
        </mxCell>
        <mxCell id="63ENl7EBPZfW6CbWKA2c-133" value="GameMap" style="swimlane;fontStyle=0;align=center;verticalAlign=top;childLayout=stackLayout;horizontal=1;startSize=26;horizontalStack=0;resizeParent=1;resizeLast=0;collapsible=1;marginBottom=0;rounded=0;shadow=0;strokeWidth=1;" vertex="1" parent="WIyWlLk6GJQsqaUBKTNV-1">
          <mxGeometry x="-1260" y="360" width="230" height="170" as="geometry">
            <mxRectangle x="550" y="140" width="160" height="26" as="alternateBounds" />
          </mxGeometry>
        </mxCell>
        <mxCell id="63ENl7EBPZfW6CbWKA2c-134" value="hazelcastInstance HazelcastInstance" style="text;align=left;verticalAlign=top;spacingLeft=4;spacingRight=4;overflow=hidden;rotatable=0;points=[[0,0.5],[1,0.5]];portConstraint=eastwest;" vertex="1" parent="63ENl7EBPZfW6CbWKA2c-133">
          <mxGeometry y="26" width="230" height="26" as="geometry" />
        </mxCell>
        <mxCell id="63ENl7EBPZfW6CbWKA2c-135" value="gameMap IMap&lt;String, GAME&gt; " style="text;align=left;verticalAlign=top;spacingLeft=4;spacingRight=4;overflow=hidden;rotatable=0;points=[[0,0.5],[1,0.5]];portConstraint=eastwest;rounded=0;shadow=0;html=0;" vertex="1" parent="63ENl7EBPZfW6CbWKA2c-133">
          <mxGeometry y="52" width="230" height="26" as="geometry" />
        </mxCell>
        <mxCell id="63ENl7EBPZfW6CbWKA2c-136" value="" style="line;html=1;strokeWidth=1;align=left;verticalAlign=middle;spacingTop=-1;spacingLeft=3;spacingRight=3;rotatable=0;labelPosition=right;points=[];portConstraint=eastwest;" vertex="1" parent="63ENl7EBPZfW6CbWKA2c-133">
          <mxGeometry y="78" width="230" height="8" as="geometry" />
        </mxCell>
        <mxCell id="63ENl7EBPZfW6CbWKA2c-137" value="+writetoMap()" style="text;align=left;verticalAlign=top;spacingLeft=4;spacingRight=4;overflow=hidden;rotatable=0;points=[[0,0.5],[1,0.5]];portConstraint=eastwest;" vertex="1" parent="63ENl7EBPZfW6CbWKA2c-133">
          <mxGeometry y="86" width="230" height="26" as="geometry" />
        </mxCell>
        <mxCell id="63ENl7EBPZfW6CbWKA2c-138" value="+updateMap()" style="text;align=left;verticalAlign=top;spacingLeft=4;spacingRight=4;overflow=hidden;rotatable=0;points=[[0,0.5],[1,0.5]];portConstraint=eastwest;" vertex="1" parent="63ENl7EBPZfW6CbWKA2c-133">
          <mxGeometry y="112" width="230" height="26" as="geometry" />
        </mxCell>
        <mxCell id="63ENl7EBPZfW6CbWKA2c-139" value="……" style="text;align=left;verticalAlign=top;spacingLeft=4;spacingRight=4;overflow=hidden;rotatable=0;points=[[0,0.5],[1,0.5]];portConstraint=eastwest;" vertex="1" parent="63ENl7EBPZfW6CbWKA2c-133">
          <mxGeometry y="138" width="230" height="26" as="geometry" />
        </mxCell>
        <mxCell id="63ENl7EBPZfW6CbWKA2c-140" value="FileUploadController" style="swimlane;fontStyle=0;align=center;verticalAlign=top;childLayout=stackLayout;horizontal=1;startSize=26;horizontalStack=0;resizeParent=1;resizeLast=0;collapsible=1;marginBottom=0;rounded=0;shadow=0;strokeWidth=1;" vertex="1" parent="WIyWlLk6GJQsqaUBKTNV-1">
          <mxGeometry x="-130" y="790" width="190" height="170" as="geometry">
            <mxRectangle x="550" y="140" width="160" height="26" as="alternateBounds" />
          </mxGeometry>
        </mxCell>
        <mxCell id="63ENl7EBPZfW6CbWKA2c-141" value="servletContext ServletContext" style="text;align=left;verticalAlign=top;spacingLeft=4;spacingRight=4;overflow=hidden;rotatable=0;points=[[0,0.5],[1,0.5]];portConstraint=eastwest;" vertex="1" parent="63ENl7EBPZfW6CbWKA2c-140">
          <mxGeometry y="26" width="190" height="26" as="geometry" />
        </mxCell>
        <mxCell id="63ENl7EBPZfW6CbWKA2c-142" value="resourceLoader ResourceLoader" style="text;align=left;verticalAlign=top;spacingLeft=4;spacingRight=4;overflow=hidden;rotatable=0;points=[[0,0.5],[1,0.5]];portConstraint=eastwest;rounded=0;shadow=0;html=0;" vertex="1" parent="63ENl7EBPZfW6CbWKA2c-140">
          <mxGeometry y="52" width="190" height="26" as="geometry" />
        </mxCell>
        <mxCell id="63ENl7EBPZfW6CbWKA2c-143" value="" style="line;html=1;strokeWidth=1;align=left;verticalAlign=middle;spacingTop=-1;spacingLeft=3;spacingRight=3;rotatable=0;labelPosition=right;points=[];portConstraint=eastwest;" vertex="1" parent="63ENl7EBPZfW6CbWKA2c-140">
          <mxGeometry y="78" width="190" height="8" as="geometry" />
        </mxCell>
        <mxCell id="63ENl7EBPZfW6CbWKA2c-144" value="+upload()" style="text;align=left;verticalAlign=top;spacingLeft=4;spacingRight=4;overflow=hidden;rotatable=0;points=[[0,0.5],[1,0.5]];portConstraint=eastwest;" vertex="1" parent="63ENl7EBPZfW6CbWKA2c-140">
          <mxGeometry y="86" width="190" height="26" as="geometry" />
        </mxCell>
        <mxCell id="63ENl7EBPZfW6CbWKA2c-145" value="+uploadroom()" style="text;align=left;verticalAlign=top;spacingLeft=4;spacingRight=4;overflow=hidden;rotatable=0;points=[[0,0.5],[1,0.5]];portConstraint=eastwest;" vertex="1" parent="63ENl7EBPZfW6CbWKA2c-140">
          <mxGeometry y="112" width="190" height="26" as="geometry" />
        </mxCell>
        <mxCell id="63ENl7EBPZfW6CbWKA2c-146" value="……" style="text;align=left;verticalAlign=top;spacingLeft=4;spacingRight=4;overflow=hidden;rotatable=0;points=[[0,0.5],[1,0.5]];portConstraint=eastwest;" vertex="1" parent="63ENl7EBPZfW6CbWKA2c-140">
          <mxGeometry y="138" width="190" height="26" as="geometry" />
        </mxCell>
        <mxCell id="63ENl7EBPZfW6CbWKA2c-147" value="HazelcastH2MapStoreGame" style="swimlane;fontStyle=0;align=center;verticalAlign=top;childLayout=stackLayout;horizontal=1;startSize=26;horizontalStack=0;resizeParent=1;resizeLast=0;collapsible=1;marginBottom=0;rounded=0;shadow=0;strokeWidth=1;" vertex="1" parent="WIyWlLk6GJQsqaUBKTNV-1">
          <mxGeometry x="-1255" y="600" width="220" height="150" as="geometry">
            <mxRectangle x="550" y="140" width="160" height="26" as="alternateBounds" />
          </mxGeometry>
        </mxCell>
        <mxCell id="63ENl7EBPZfW6CbWKA2c-148" value="DataSource dataSource" style="text;align=left;verticalAlign=top;spacingLeft=4;spacingRight=4;overflow=hidden;rotatable=0;points=[[0,0.5],[1,0.5]];portConstraint=eastwest;" vertex="1" parent="63ENl7EBPZfW6CbWKA2c-147">
          <mxGeometry y="26" width="220" height="26" as="geometry" />
        </mxCell>
        <mxCell id="63ENl7EBPZfW6CbWKA2c-153" value="" style="line;html=1;strokeWidth=1;align=left;verticalAlign=middle;spacingTop=-1;spacingLeft=3;spacingRight=3;rotatable=0;labelPosition=right;points=[];portConstraint=eastwest;" vertex="1" parent="63ENl7EBPZfW6CbWKA2c-147">
          <mxGeometry y="52" width="220" height="8" as="geometry" />
        </mxCell>
        <mxCell id="63ENl7EBPZfW6CbWKA2c-154" value="+store()" style="text;align=left;verticalAlign=top;spacingLeft=4;spacingRight=4;overflow=hidden;rotatable=0;points=[[0,0.5],[1,0.5]];portConstraint=eastwest;" vertex="1" parent="63ENl7EBPZfW6CbWKA2c-147">
          <mxGeometry y="60" width="220" height="26" as="geometry" />
        </mxCell>
        <mxCell id="63ENl7EBPZfW6CbWKA2c-155" value="+deletr()" style="text;align=left;verticalAlign=top;spacingLeft=4;spacingRight=4;overflow=hidden;rotatable=0;points=[[0,0.5],[1,0.5]];portConstraint=eastwest;" vertex="1" parent="63ENl7EBPZfW6CbWKA2c-147">
          <mxGeometry y="86" width="220" height="26" as="geometry" />
        </mxCell>
        <mxCell id="63ENl7EBPZfW6CbWKA2c-156" value="……" style="text;align=left;verticalAlign=top;spacingLeft=4;spacingRight=4;overflow=hidden;rotatable=0;points=[[0,0.5],[1,0.5]];portConstraint=eastwest;" vertex="1" parent="63ENl7EBPZfW6CbWKA2c-147">
          <mxGeometry y="112" width="220" height="26" as="geometry" />
        </mxCell>
        <mxCell id="63ENl7EBPZfW6CbWKA2c-163" value="HazelcastH2MapStoreRoom" style="swimlane;fontStyle=0;align=center;verticalAlign=top;childLayout=stackLayout;horizontal=1;startSize=26;horizontalStack=0;resizeParent=1;resizeLast=0;collapsible=1;marginBottom=0;rounded=0;shadow=0;strokeWidth=1;" vertex="1" parent="WIyWlLk6GJQsqaUBKTNV-1">
          <mxGeometry x="-930" y="600" width="220" height="150" as="geometry">
            <mxRectangle x="550" y="140" width="160" height="26" as="alternateBounds" />
          </mxGeometry>
        </mxCell>
        <mxCell id="63ENl7EBPZfW6CbWKA2c-164" value="DataSource dataSource" style="text;align=left;verticalAlign=top;spacingLeft=4;spacingRight=4;overflow=hidden;rotatable=0;points=[[0,0.5],[1,0.5]];portConstraint=eastwest;" vertex="1" parent="63ENl7EBPZfW6CbWKA2c-163">
          <mxGeometry y="26" width="220" height="26" as="geometry" />
        </mxCell>
        <mxCell id="63ENl7EBPZfW6CbWKA2c-165" value="" style="line;html=1;strokeWidth=1;align=left;verticalAlign=middle;spacingTop=-1;spacingLeft=3;spacingRight=3;rotatable=0;labelPosition=right;points=[];portConstraint=eastwest;" vertex="1" parent="63ENl7EBPZfW6CbWKA2c-163">
          <mxGeometry y="52" width="220" height="8" as="geometry" />
        </mxCell>
        <mxCell id="63ENl7EBPZfW6CbWKA2c-166" value="+store()" style="text;align=left;verticalAlign=top;spacingLeft=4;spacingRight=4;overflow=hidden;rotatable=0;points=[[0,0.5],[1,0.5]];portConstraint=eastwest;" vertex="1" parent="63ENl7EBPZfW6CbWKA2c-163">
          <mxGeometry y="60" width="220" height="26" as="geometry" />
        </mxCell>
        <mxCell id="63ENl7EBPZfW6CbWKA2c-167" value="+deletr()" style="text;align=left;verticalAlign=top;spacingLeft=4;spacingRight=4;overflow=hidden;rotatable=0;points=[[0,0.5],[1,0.5]];portConstraint=eastwest;" vertex="1" parent="63ENl7EBPZfW6CbWKA2c-163">
          <mxGeometry y="86" width="220" height="26" as="geometry" />
        </mxCell>
        <mxCell id="63ENl7EBPZfW6CbWKA2c-168" value="……" style="text;align=left;verticalAlign=top;spacingLeft=4;spacingRight=4;overflow=hidden;rotatable=0;points=[[0,0.5],[1,0.5]];portConstraint=eastwest;" vertex="1" parent="63ENl7EBPZfW6CbWKA2c-163">
          <mxGeometry y="112" width="220" height="26" as="geometry" />
        </mxCell>
        <mxCell id="63ENl7EBPZfW6CbWKA2c-169" value="HazelcastH2MapStoreUser" style="swimlane;fontStyle=0;align=center;verticalAlign=top;childLayout=stackLayout;horizontal=1;startSize=26;horizontalStack=0;resizeParent=1;resizeLast=0;collapsible=1;marginBottom=0;rounded=0;shadow=0;strokeWidth=1;" vertex="1" parent="WIyWlLk6GJQsqaUBKTNV-1">
          <mxGeometry x="-910" y="-170" width="220" height="150" as="geometry">
            <mxRectangle x="550" y="140" width="160" height="26" as="alternateBounds" />
          </mxGeometry>
        </mxCell>
        <mxCell id="63ENl7EBPZfW6CbWKA2c-170" value="DataSource dataSource" style="text;align=left;verticalAlign=top;spacingLeft=4;spacingRight=4;overflow=hidden;rotatable=0;points=[[0,0.5],[1,0.5]];portConstraint=eastwest;" vertex="1" parent="63ENl7EBPZfW6CbWKA2c-169">
          <mxGeometry y="26" width="220" height="26" as="geometry" />
        </mxCell>
        <mxCell id="63ENl7EBPZfW6CbWKA2c-171" value="" style="line;html=1;strokeWidth=1;align=left;verticalAlign=middle;spacingTop=-1;spacingLeft=3;spacingRight=3;rotatable=0;labelPosition=right;points=[];portConstraint=eastwest;" vertex="1" parent="63ENl7EBPZfW6CbWKA2c-169">
          <mxGeometry y="52" width="220" height="8" as="geometry" />
        </mxCell>
        <mxCell id="63ENl7EBPZfW6CbWKA2c-172" value="+store()" style="text;align=left;verticalAlign=top;spacingLeft=4;spacingRight=4;overflow=hidden;rotatable=0;points=[[0,0.5],[1,0.5]];portConstraint=eastwest;" vertex="1" parent="63ENl7EBPZfW6CbWKA2c-169">
          <mxGeometry y="60" width="220" height="26" as="geometry" />
        </mxCell>
        <mxCell id="63ENl7EBPZfW6CbWKA2c-173" value="+deletr()" style="text;align=left;verticalAlign=top;spacingLeft=4;spacingRight=4;overflow=hidden;rotatable=0;points=[[0,0.5],[1,0.5]];portConstraint=eastwest;" vertex="1" parent="63ENl7EBPZfW6CbWKA2c-169">
          <mxGeometry y="86" width="220" height="26" as="geometry" />
        </mxCell>
        <mxCell id="63ENl7EBPZfW6CbWKA2c-174" value="……" style="text;align=left;verticalAlign=top;spacingLeft=4;spacingRight=4;overflow=hidden;rotatable=0;points=[[0,0.5],[1,0.5]];portConstraint=eastwest;" vertex="1" parent="63ENl7EBPZfW6CbWKA2c-169">
          <mxGeometry y="112" width="220" height="26" as="geometry" />
        </mxCell>
        <mxCell id="63ENl7EBPZfW6CbWKA2c-175" value="HazelcastH2MapStoreTalk" style="swimlane;fontStyle=0;align=center;verticalAlign=top;childLayout=stackLayout;horizontal=1;startSize=26;horizontalStack=0;resizeParent=1;resizeLast=0;collapsible=1;marginBottom=0;rounded=0;shadow=0;strokeWidth=1;" vertex="1" parent="WIyWlLk6GJQsqaUBKTNV-1">
          <mxGeometry x="-408" y="730" width="220" height="150" as="geometry">
            <mxRectangle x="550" y="140" width="160" height="26" as="alternateBounds" />
          </mxGeometry>
        </mxCell>
        <mxCell id="63ENl7EBPZfW6CbWKA2c-176" value="DataSource dataSource" style="text;align=left;verticalAlign=top;spacingLeft=4;spacingRight=4;overflow=hidden;rotatable=0;points=[[0,0.5],[1,0.5]];portConstraint=eastwest;" vertex="1" parent="63ENl7EBPZfW6CbWKA2c-175">
          <mxGeometry y="26" width="220" height="26" as="geometry" />
        </mxCell>
        <mxCell id="63ENl7EBPZfW6CbWKA2c-177" value="" style="line;html=1;strokeWidth=1;align=left;verticalAlign=middle;spacingTop=-1;spacingLeft=3;spacingRight=3;rotatable=0;labelPosition=right;points=[];portConstraint=eastwest;" vertex="1" parent="63ENl7EBPZfW6CbWKA2c-175">
          <mxGeometry y="52" width="220" height="8" as="geometry" />
        </mxCell>
        <mxCell id="63ENl7EBPZfW6CbWKA2c-178" value="+store()" style="text;align=left;verticalAlign=top;spacingLeft=4;spacingRight=4;overflow=hidden;rotatable=0;points=[[0,0.5],[1,0.5]];portConstraint=eastwest;" vertex="1" parent="63ENl7EBPZfW6CbWKA2c-175">
          <mxGeometry y="60" width="220" height="26" as="geometry" />
        </mxCell>
        <mxCell id="63ENl7EBPZfW6CbWKA2c-179" value="+deletr()" style="text;align=left;verticalAlign=top;spacingLeft=4;spacingRight=4;overflow=hidden;rotatable=0;points=[[0,0.5],[1,0.5]];portConstraint=eastwest;" vertex="1" parent="63ENl7EBPZfW6CbWKA2c-175">
          <mxGeometry y="86" width="220" height="26" as="geometry" />
        </mxCell>
        <mxCell id="63ENl7EBPZfW6CbWKA2c-180" value="……" style="text;align=left;verticalAlign=top;spacingLeft=4;spacingRight=4;overflow=hidden;rotatable=0;points=[[0,0.5],[1,0.5]];portConstraint=eastwest;" vertex="1" parent="63ENl7EBPZfW6CbWKA2c-175">
          <mxGeometry y="112" width="220" height="26" as="geometry" />
        </mxCell>
        <mxCell id="63ENl7EBPZfW6CbWKA2c-190" value="" style="endArrow=block;dashed=1;endFill=0;endSize=12;html=1;rounded=0;" edge="1" parent="WIyWlLk6GJQsqaUBKTNV-1" source="63ENl7EBPZfW6CbWKA2c-175" target="63ENl7EBPZfW6CbWKA2c-126">
          <mxGeometry width="160" relative="1" as="geometry">
            <mxPoint x="146" y="410" as="sourcePoint" />
            <mxPoint x="306" y="410" as="targetPoint" />
          </mxGeometry>
        </mxCell>
        <mxCell id="63ENl7EBPZfW6CbWKA2c-191" value="" style="endArrow=block;dashed=1;endFill=0;endSize=12;html=1;rounded=0;" edge="1" parent="WIyWlLk6GJQsqaUBKTNV-1" source="63ENl7EBPZfW6CbWKA2c-163" target="63ENl7EBPZfW6CbWKA2c-119">
          <mxGeometry width="160" relative="1" as="geometry">
            <mxPoint x="-730" y="290" as="sourcePoint" />
            <mxPoint x="-570" y="290" as="targetPoint" />
          </mxGeometry>
        </mxCell>
        <mxCell id="63ENl7EBPZfW6CbWKA2c-192" value="" style="endArrow=block;dashed=1;endFill=0;endSize=12;html=1;rounded=0;" edge="1" parent="WIyWlLk6GJQsqaUBKTNV-1" source="63ENl7EBPZfW6CbWKA2c-169" target="63ENl7EBPZfW6CbWKA2c-112">
          <mxGeometry width="160" relative="1" as="geometry">
            <mxPoint x="-1040" y="-480" as="sourcePoint" />
            <mxPoint x="-880" y="-480" as="targetPoint" />
          </mxGeometry>
        </mxCell>
        <mxCell id="63ENl7EBPZfW6CbWKA2c-193" value="" style="endArrow=block;dashed=1;endFill=0;endSize=12;html=1;rounded=0;" edge="1" parent="WIyWlLk6GJQsqaUBKTNV-1" source="63ENl7EBPZfW6CbWKA2c-147" target="63ENl7EBPZfW6CbWKA2c-133">
          <mxGeometry width="160" relative="1" as="geometry">
            <mxPoint x="-1730" y="290" as="sourcePoint" />
            <mxPoint x="-1570" y="290" as="targetPoint" />
          </mxGeometry>
        </mxCell>
        <mxCell id="63ENl7EBPZfW6CbWKA2c-194" value="" style="endArrow=diamondThin;endFill=0;endSize=24;html=1;rounded=0;" edge="1" parent="WIyWlLk6GJQsqaUBKTNV-1" target="63ENl7EBPZfW6CbWKA2c-3">
          <mxGeometry width="160" relative="1" as="geometry">
            <mxPoint x="-470" y="250" as="sourcePoint" />
            <mxPoint x="-100" y="90" as="targetPoint" />
            <Array as="points">
              <mxPoint x="-490" y="320" />
            </Array>
          </mxGeometry>
        </mxCell>
        <mxCell id="63ENl7EBPZfW6CbWKA2c-195" value="" style="endArrow=diamondThin;endFill=1;endSize=24;html=1;rounded=0;" edge="1" parent="WIyWlLk6GJQsqaUBKTNV-1" source="zkfFHV4jXpPFQw0GAbJ--17" target="63ENl7EBPZfW6CbWKA2c-3">
          <mxGeometry width="160" relative="1" as="geometry">
            <mxPoint x="-260" y="90" as="sourcePoint" />
            <mxPoint x="-100" y="90" as="targetPoint" />
          </mxGeometry>
        </mxCell>
        <mxCell id="63ENl7EBPZfW6CbWKA2c-196" value="" style="endArrow=diamondThin;endFill=0;endSize=24;html=1;rounded=0;" edge="1" parent="WIyWlLk6GJQsqaUBKTNV-1" source="zkfFHV4jXpPFQw0GAbJ--0" target="63ENl7EBPZfW6CbWKA2c-47">
          <mxGeometry width="160" relative="1" as="geometry">
            <mxPoint x="-260" y="90" as="sourcePoint" />
            <mxPoint x="-100" y="90" as="targetPoint" />
          </mxGeometry>
        </mxCell>
        <mxCell id="63ENl7EBPZfW6CbWKA2c-198" value="" style="endArrow=diamondThin;endFill=1;endSize=24;html=1;rounded=0;" edge="1" parent="WIyWlLk6GJQsqaUBKTNV-1" source="zkfFHV4jXpPFQw0GAbJ--17" target="zkfFHV4jXpPFQw0GAbJ--0">
          <mxGeometry width="160" relative="1" as="geometry">
            <mxPoint x="-260" y="90" as="sourcePoint" />
            <mxPoint x="-100" y="90" as="targetPoint" />
          </mxGeometry>
        </mxCell>
        <mxCell id="63ENl7EBPZfW6CbWKA2c-199" value="Use" style="endArrow=open;endSize=12;dashed=1;html=1;rounded=0;entryX=0.5;entryY=0;entryDx=0;entryDy=0;" edge="1" parent="WIyWlLk6GJQsqaUBKTNV-1" source="63ENl7EBPZfW6CbWKA2c-24" target="zkfFHV4jXpPFQw0GAbJ--0">
          <mxGeometry width="160" relative="1" as="geometry">
            <mxPoint x="-510" y="-40" as="sourcePoint" />
            <mxPoint x="-350" y="-40" as="targetPoint" />
          </mxGeometry>
        </mxCell>
        <mxCell id="63ENl7EBPZfW6CbWKA2c-200" value="Use" style="endArrow=open;endSize=12;dashed=1;html=1;rounded=0;" edge="1" parent="WIyWlLk6GJQsqaUBKTNV-1" source="63ENl7EBPZfW6CbWKA2c-33" target="63ENl7EBPZfW6CbWKA2c-3">
          <mxGeometry width="160" relative="1" as="geometry">
            <mxPoint x="-510" y="190" as="sourcePoint" />
            <mxPoint x="-350" y="190" as="targetPoint" />
          </mxGeometry>
        </mxCell>
        <mxCell id="63ENl7EBPZfW6CbWKA2c-201" value="Use" style="endArrow=open;endSize=12;dashed=1;html=1;rounded=0;" edge="1" parent="WIyWlLk6GJQsqaUBKTNV-1" source="63ENl7EBPZfW6CbWKA2c-40" target="zkfFHV4jXpPFQw0GAbJ--17">
          <mxGeometry width="160" relative="1" as="geometry">
            <mxPoint x="-280" y="310" as="sourcePoint" />
            <mxPoint x="-120" y="310" as="targetPoint" />
          </mxGeometry>
        </mxCell>
        <mxCell id="63ENl7EBPZfW6CbWKA2c-202" value="Use" style="endArrow=open;endSize=12;dashed=1;html=1;rounded=0;" edge="1" parent="WIyWlLk6GJQsqaUBKTNV-1" source="63ENl7EBPZfW6CbWKA2c-55" target="63ENl7EBPZfW6CbWKA2c-47">
          <mxGeometry width="160" relative="1" as="geometry">
            <mxPoint x="-830" y="310" as="sourcePoint" />
            <mxPoint x="-670" y="310" as="targetPoint" />
          </mxGeometry>
        </mxCell>
        <mxCell id="63ENl7EBPZfW6CbWKA2c-203" value="Use" style="endArrow=open;endSize=12;dashed=1;html=1;rounded=0;" edge="1" parent="WIyWlLk6GJQsqaUBKTNV-1" source="63ENl7EBPZfW6CbWKA2c-92" target="zkfFHV4jXpPFQw0GAbJ--17">
          <mxGeometry width="160" relative="1" as="geometry">
            <mxPoint x="-100" y="20" as="sourcePoint" />
            <mxPoint x="60" y="20" as="targetPoint" />
          </mxGeometry>
        </mxCell>
        <mxCell id="63ENl7EBPZfW6CbWKA2c-204" value="Use" style="endArrow=open;endSize=12;dashed=1;html=1;rounded=0;" edge="1" parent="WIyWlLk6GJQsqaUBKTNV-1" source="zkfFHV4jXpPFQw0GAbJ--0" target="63ENl7EBPZfW6CbWKA2c-11">
          <mxGeometry width="160" relative="1" as="geometry">
            <mxPoint x="-240" y="70" as="sourcePoint" />
            <mxPoint x="-80" y="70" as="targetPoint" />
          </mxGeometry>
        </mxCell>
        <mxCell id="63ENl7EBPZfW6CbWKA2c-205" value="Use" style="endArrow=open;endSize=12;dashed=1;html=1;rounded=0;" edge="1" parent="WIyWlLk6GJQsqaUBKTNV-1" source="zkfFHV4jXpPFQw0GAbJ--17" target="63ENl7EBPZfW6CbWKA2c-11">
          <mxGeometry width="160" relative="1" as="geometry">
            <mxPoint x="-240" y="70" as="sourcePoint" />
            <mxPoint x="-80" y="70" as="targetPoint" />
          </mxGeometry>
        </mxCell>
        <mxCell id="63ENl7EBPZfW6CbWKA2c-206" value="Use" style="endArrow=open;endSize=12;dashed=1;html=1;rounded=0;" edge="1" parent="WIyWlLk6GJQsqaUBKTNV-1" source="63ENl7EBPZfW6CbWKA2c-47" target="63ENl7EBPZfW6CbWKA2c-11">
          <mxGeometry width="160" relative="1" as="geometry">
            <mxPoint x="-240" y="70" as="sourcePoint" />
            <mxPoint x="-80" y="70" as="targetPoint" />
            <Array as="points">
              <mxPoint x="-720" y="40" />
            </Array>
          </mxGeometry>
        </mxCell>
        <mxCell id="63ENl7EBPZfW6CbWKA2c-207" value="Use" style="endArrow=open;endSize=12;dashed=1;html=1;rounded=0;" edge="1" parent="WIyWlLk6GJQsqaUBKTNV-1" source="63ENl7EBPZfW6CbWKA2c-3" target="63ENl7EBPZfW6CbWKA2c-11">
          <mxGeometry width="160" relative="1" as="geometry">
            <mxPoint x="-690" y="220" as="sourcePoint" />
            <mxPoint x="-530" y="220" as="targetPoint" />
            <Array as="points">
              <mxPoint x="-430" y="250" />
            </Array>
          </mxGeometry>
        </mxCell>
        <mxCell id="63ENl7EBPZfW6CbWKA2c-208" value="Use" style="endArrow=open;endSize=12;dashed=1;html=1;rounded=0;" edge="1" parent="WIyWlLk6GJQsqaUBKTNV-1" source="63ENl7EBPZfW6CbWKA2c-126" target="zkfFHV4jXpPFQw0GAbJ--17">
          <mxGeometry width="160" relative="1" as="geometry">
            <mxPoint x="-250" y="360" as="sourcePoint" />
            <mxPoint x="-90" y="360" as="targetPoint" />
          </mxGeometry>
        </mxCell>
        <mxCell id="63ENl7EBPZfW6CbWKA2c-209" value="Use" style="endArrow=open;endSize=12;dashed=1;html=1;rounded=0;" edge="1" parent="WIyWlLk6GJQsqaUBKTNV-1" source="63ENl7EBPZfW6CbWKA2c-119" target="63ENl7EBPZfW6CbWKA2c-3">
          <mxGeometry width="160" relative="1" as="geometry">
            <mxPoint x="-520" y="360" as="sourcePoint" />
            <mxPoint x="-360" y="360" as="targetPoint" />
          </mxGeometry>
        </mxCell>
        <mxCell id="63ENl7EBPZfW6CbWKA2c-210" value="Use" style="endArrow=open;endSize=12;dashed=1;html=1;rounded=0;" edge="1" parent="WIyWlLk6GJQsqaUBKTNV-1" source="63ENl7EBPZfW6CbWKA2c-112" target="zkfFHV4jXpPFQw0GAbJ--0">
          <mxGeometry width="160" relative="1" as="geometry">
            <mxPoint x="-390" y="-200" as="sourcePoint" />
            <mxPoint x="-230" y="-200" as="targetPoint" />
            <Array as="points">
              <mxPoint x="-800" y="-210" />
              <mxPoint x="-660" y="-210" />
              <mxPoint x="-660" />
              <mxPoint x="-520" />
            </Array>
          </mxGeometry>
        </mxCell>
        <mxCell id="63ENl7EBPZfW6CbWKA2c-211" value="Use" style="endArrow=open;endSize=12;dashed=1;html=1;rounded=0;" edge="1" parent="WIyWlLk6GJQsqaUBKTNV-1" source="63ENl7EBPZfW6CbWKA2c-133" target="63ENl7EBPZfW6CbWKA2c-47">
          <mxGeometry width="160" relative="1" as="geometry">
            <mxPoint x="-710" y="440" as="sourcePoint" />
            <mxPoint x="-550" y="440" as="targetPoint" />
            <Array as="points">
              <mxPoint x="-970" y="445" />
              <mxPoint x="-970" y="330" />
              <mxPoint x="-720" y="330" />
            </Array>
          </mxGeometry>
        </mxCell>
        <mxCell id="63ENl7EBPZfW6CbWKA2c-212" value="Use" style="endArrow=open;endSize=12;dashed=1;html=1;rounded=0;" edge="1" parent="WIyWlLk6GJQsqaUBKTNV-1" source="63ENl7EBPZfW6CbWKA2c-85" target="63ENl7EBPZfW6CbWKA2c-40">
          <mxGeometry width="160" relative="1" as="geometry">
            <mxPoint x="-220" y="420" as="sourcePoint" />
            <mxPoint x="-60" y="420" as="targetPoint" />
            <Array as="points">
              <mxPoint x="-25" y="420" />
            </Array>
          </mxGeometry>
        </mxCell>
        <mxCell id="63ENl7EBPZfW6CbWKA2c-214" value="Use" style="endArrow=open;endSize=12;dashed=1;html=1;rounded=0;" edge="1" parent="WIyWlLk6GJQsqaUBKTNV-1" source="63ENl7EBPZfW6CbWKA2c-85" target="zkfFHV4jXpPFQw0GAbJ--17">
          <mxGeometry width="160" relative="1" as="geometry">
            <mxPoint x="20" y="420" as="sourcePoint" />
            <mxPoint x="180" y="420" as="targetPoint" />
          </mxGeometry>
        </mxCell>
        <mxCell id="63ENl7EBPZfW6CbWKA2c-215" value="Use" style="endArrow=open;endSize=12;dashed=1;html=1;rounded=0;" edge="1" parent="WIyWlLk6GJQsqaUBKTNV-1" source="63ENl7EBPZfW6CbWKA2c-85" target="63ENl7EBPZfW6CbWKA2c-126">
          <mxGeometry width="160" relative="1" as="geometry">
            <mxPoint x="20" y="420" as="sourcePoint" />
            <mxPoint x="180" y="420" as="targetPoint" />
          </mxGeometry>
        </mxCell>
        <mxCell id="63ENl7EBPZfW6CbWKA2c-216" value="Use" style="endArrow=open;endSize=12;dashed=1;html=1;rounded=0;" edge="1" parent="WIyWlLk6GJQsqaUBKTNV-1" source="63ENl7EBPZfW6CbWKA2c-85" target="63ENl7EBPZfW6CbWKA2c-24">
          <mxGeometry width="160" relative="1" as="geometry">
            <mxPoint x="-359" y="490" as="sourcePoint" />
            <mxPoint x="-550" y="420" as="targetPoint" />
            <Array as="points">
              <mxPoint x="-190" y="460" />
              <mxPoint x="-260" y="460" />
              <mxPoint x="-260" y="420" />
              <mxPoint x="-410" y="420" />
              <mxPoint x="-410" y="230" />
              <mxPoint x="-410" y="40" />
              <mxPoint x="-410" y="-140" />
            </Array>
          </mxGeometry>
        </mxCell>
        <mxCell id="63ENl7EBPZfW6CbWKA2c-217" value="Use" style="endArrow=open;endSize=12;dashed=1;html=1;rounded=0;" edge="1" parent="WIyWlLk6GJQsqaUBKTNV-1" source="63ENl7EBPZfW6CbWKA2c-85" target="63ENl7EBPZfW6CbWKA2c-92">
          <mxGeometry width="160" relative="1" as="geometry">
            <mxPoint x="-410" y="510" as="sourcePoint" />
            <mxPoint x="-250" y="510" as="targetPoint" />
            <Array as="points">
              <mxPoint x="100" y="589" />
              <mxPoint x="100" y="40" />
            </Array>
          </mxGeometry>
        </mxCell>
        <mxCell id="63ENl7EBPZfW6CbWKA2c-218" value="Use" style="endArrow=open;endSize=12;dashed=1;html=1;rounded=0;" edge="1" parent="WIyWlLk6GJQsqaUBKTNV-1" source="63ENl7EBPZfW6CbWKA2c-78" target="63ENl7EBPZfW6CbWKA2c-3">
          <mxGeometry width="160" relative="1" as="geometry">
            <mxPoint x="-830" y="630" as="sourcePoint" />
            <mxPoint x="-670" y="630" as="targetPoint" />
          </mxGeometry>
        </mxCell>
        <mxCell id="63ENl7EBPZfW6CbWKA2c-219" value="Use" style="endArrow=open;endSize=12;dashed=1;html=1;rounded=0;" edge="1" parent="WIyWlLk6GJQsqaUBKTNV-1" source="63ENl7EBPZfW6CbWKA2c-78" target="63ENl7EBPZfW6CbWKA2c-33">
          <mxGeometry width="160" relative="1" as="geometry">
            <mxPoint x="-830" y="630" as="sourcePoint" />
            <mxPoint x="-670" y="630" as="targetPoint" />
          </mxGeometry>
        </mxCell>
        <mxCell id="63ENl7EBPZfW6CbWKA2c-220" value="Use" style="endArrow=open;endSize=12;dashed=1;html=1;rounded=0;" edge="1" parent="WIyWlLk6GJQsqaUBKTNV-1" source="63ENl7EBPZfW6CbWKA2c-78" target="63ENl7EBPZfW6CbWKA2c-24">
          <mxGeometry width="160" relative="1" as="geometry">
            <mxPoint x="-830" y="630" as="sourcePoint" />
            <mxPoint x="-670" y="630" as="targetPoint" />
            <Array as="points">
              <mxPoint x="-620" y="630" />
              <mxPoint x="-620" y="380" />
              <mxPoint x="-620" y="30" />
            </Array>
          </mxGeometry>
        </mxCell>
        <mxCell id="63ENl7EBPZfW6CbWKA2c-221" value="Use" style="endArrow=open;endSize=12;dashed=1;html=1;rounded=0;" edge="1" parent="WIyWlLk6GJQsqaUBKTNV-1" source="63ENl7EBPZfW6CbWKA2c-70" target="zkfFHV4jXpPFQw0GAbJ--0">
          <mxGeometry width="160" relative="1" as="geometry">
            <mxPoint x="-400" y="260" as="sourcePoint" />
            <mxPoint x="-240" y="260" as="targetPoint" />
          </mxGeometry>
        </mxCell>
        <mxCell id="63ENl7EBPZfW6CbWKA2c-222" value="Use" style="endArrow=open;endSize=12;dashed=1;html=1;rounded=0;" edge="1" parent="WIyWlLk6GJQsqaUBKTNV-1" source="63ENl7EBPZfW6CbWKA2c-78" target="63ENl7EBPZfW6CbWKA2c-119">
          <mxGeometry width="160" relative="1" as="geometry">
            <mxPoint x="-400" y="690" as="sourcePoint" />
            <mxPoint x="-240" y="690" as="targetPoint" />
            <Array as="points">
              <mxPoint x="-650" y="790" />
              <mxPoint x="-650" y="620" />
              <mxPoint x="-650" y="520" />
            </Array>
          </mxGeometry>
        </mxCell>
        <mxCell id="63ENl7EBPZfW6CbWKA2c-223" value="Use" style="endArrow=open;endSize=12;dashed=1;html=1;rounded=0;" edge="1" parent="WIyWlLk6GJQsqaUBKTNV-1" source="63ENl7EBPZfW6CbWKA2c-70" target="63ENl7EBPZfW6CbWKA2c-112">
          <mxGeometry width="160" relative="1" as="geometry">
            <mxPoint x="-610" y="120" as="sourcePoint" />
            <mxPoint x="-450" y="120" as="targetPoint" />
            <Array as="points">
              <mxPoint x="-294" y="-320" />
            </Array>
          </mxGeometry>
        </mxCell>
        <mxCell id="63ENl7EBPZfW6CbWKA2c-224" value="Use" style="endArrow=open;endSize=12;dashed=1;html=1;rounded=0;" edge="1" parent="WIyWlLk6GJQsqaUBKTNV-1" source="63ENl7EBPZfW6CbWKA2c-70" target="63ENl7EBPZfW6CbWKA2c-24">
          <mxGeometry width="160" relative="1" as="geometry">
            <mxPoint x="-390" y="120" as="sourcePoint" />
            <mxPoint x="-230" y="120" as="targetPoint" />
          </mxGeometry>
        </mxCell>
        <mxCell id="63ENl7EBPZfW6CbWKA2c-225" value="Use" style="endArrow=open;endSize=12;dashed=1;html=1;rounded=0;" edge="1" parent="WIyWlLk6GJQsqaUBKTNV-1" source="63ENl7EBPZfW6CbWKA2c-101" target="63ENl7EBPZfW6CbWKA2c-47">
          <mxGeometry width="160" relative="1" as="geometry">
            <mxPoint x="-630" y="290" as="sourcePoint" />
            <mxPoint x="-550" y="310" as="targetPoint" />
            <Array as="points">
              <mxPoint x="-1060" y="300" />
              <mxPoint x="-780" y="300" />
            </Array>
          </mxGeometry>
        </mxCell>
        <mxCell id="63ENl7EBPZfW6CbWKA2c-226" value="Use" style="endArrow=open;endSize=12;dashed=1;html=1;rounded=0;" edge="1" parent="WIyWlLk6GJQsqaUBKTNV-1" source="63ENl7EBPZfW6CbWKA2c-101" target="63ENl7EBPZfW6CbWKA2c-55">
          <mxGeometry width="160" relative="1" as="geometry">
            <mxPoint x="-630" y="290" as="sourcePoint" />
            <mxPoint x="-470" y="290" as="targetPoint" />
          </mxGeometry>
        </mxCell>
        <mxCell id="63ENl7EBPZfW6CbWKA2c-227" value="Use" style="endArrow=open;endSize=12;dashed=1;html=1;rounded=0;" edge="1" parent="WIyWlLk6GJQsqaUBKTNV-1" source="63ENl7EBPZfW6CbWKA2c-101" target="63ENl7EBPZfW6CbWKA2c-133">
          <mxGeometry width="160" relative="1" as="geometry">
            <mxPoint x="-630" y="290" as="sourcePoint" />
            <mxPoint x="-470" y="290" as="targetPoint" />
          </mxGeometry>
        </mxCell>
      </root>
    </mxGraphModel>
  </diagram>
</mxfile>
